<?xml version="1.0" standalone="no"?>
<!DOCTYPE svg PUBLIC "-//W3C//DTD SVG 20010904//EN"
 "http://www.w3.org/TR/2001/REC-SVG-20010904/DTD/svg10.dtd">
<svg version="1.0" xmlns="http://www.w3.org/2000/svg"
 width="4861.000000pt" height="1112.000000pt" viewBox="0 0 4861.000000 1112.000000"
 preserveAspectRatio="xMidYMid meet">

<g transform="translate(0.000000,1112.000000) scale(0.100000,-0.100000)"
fill="#000000" stroke="none">
<path d="M7864 11101 c-3 -3 -29 -6 -59 -7 -71 -2 -127 -30 -151 -74 -13 -24
-36 -43 -72 -61 -63 -30 -93 -68 -117 -149 -10 -33 -22 -60 -26 -60 -9 0 -45
-108 -54 -162 -3 -21 -15 -57 -25 -80 -11 -24 -20 -62 -20 -84 0 -25 -6 -47
-15 -54 -9 -8 -15 -30 -15 -57 0 -74 -22 -187 -40 -203 -22 -20 -60 -115 -60
-151 0 -15 -4 -30 -9 -33 -4 -3 -11 -30 -15 -60 -3 -29 -15 -73 -26 -97 -11
-24 -20 -63 -20 -85 0 -23 -9 -61 -19 -84 -17 -38 -17 -46 -5 -76 20 -47 18
-67 -11 -94 -17 -16 -25 -34 -25 -58 0 -18 -12 -67 -26 -108 -21 -61 -25 -91
-23 -157 1 -45 -2 -90 -6 -99 -4 -9 -4 -22 -1 -27 4 -6 2 -18 -3 -28 -5 -10
-17 -52 -27 -95 -16 -71 -16 -78 -1 -101 15 -24 15 -26 -5 -39 -15 -10 -21
-26 -23 -63 -2 -28 -17 -98 -34 -157 -18 -59 -33 -138 -35 -177 -2 -38 -7 -74
-10 -79 -10 -17 -49 -275 -48 -321 1 -25 -4 -51 -10 -58 -8 -10 -8 -20 2 -38
16 -30 26 -31 40 -4 9 16 17 19 40 14 23 -5 32 -2 42 14 7 12 21 21 31 21 11
0 20 10 23 29 5 21 15 33 35 40 16 5 29 15 29 20 0 6 6 11 14 11 8 0 17 11 20
25 4 14 11 23 16 20 30 -19 120 106 120 165 0 46 21 91 59 125 l36 33 -24 26
c-22 23 -23 28 -11 75 6 27 18 56 27 62 8 7 25 34 38 59 13 25 31 52 40 60 9
7 22 25 30 40 8 15 27 41 44 59 17 18 31 40 31 48 0 8 11 28 25 45 14 16 25
35 25 41 0 7 9 18 21 25 14 9 18 19 14 32 -7 21 40 76 81 98 12 6 30 31 40 55
19 46 58 69 117 70 42 0 49 -13 51 -96 2 -80 1 -80 88 -189 l27 -34 -19 -64
c-17 -56 -18 -76 -10 -150 5 -47 10 -112 10 -144 0 -42 5 -65 17 -78 15 -16
32 -112 35 -188 0 -8 4 -59 9 -113 11 -107 34 -160 84 -193 22 -14 32 -15 65
-5 22 6 40 16 40 21 0 6 6 10 14 10 8 0 16 4 18 8 3 8 103 48 149 60 29 8 82
48 139 105 20 20 45 37 55 37 31 0 103 53 110 81 5 20 17 31 51 44 24 9 44 20
44 25 0 4 21 11 48 15 37 5 56 16 90 50 23 24 42 47 42 52 0 5 13 23 30 40 26
26 29 36 27 81 -2 52 -2 52 -47 67 -39 14 -45 14 -53 0 -4 -8 -21 -15 -36 -15
-16 0 -34 -7 -41 -15 -6 -8 -56 -44 -111 -81 -54 -37 -110 -82 -124 -100 -14
-19 -33 -34 -42 -34 -9 0 -39 -20 -68 -44 l-52 -45 -30 19 c-38 23 -48 37 -34
53 14 18 5 238 -12 279 -9 22 -11 43 -5 63 16 56 0 103 -53 157 -27 28 -49 52
-49 55 0 3 13 22 29 42 l29 37 -13 64 c-8 36 -14 82 -15 103 0 21 -9 56 -21
79 -16 31 -19 51 -14 84 5 34 1 52 -19 93 -15 28 -26 59 -26 70 0 37 -12 51
-54 61 -22 6 -55 18 -73 27 -31 16 -33 16 -95 -17 -66 -35 -196 -123 -213
-145 -6 -7 -38 -26 -71 -43 -57 -29 -99 -67 -134 -122 -19 -30 -100 -114 -123
-126 -15 -8 -139 -180 -185 -256 -19 -31 -43 -36 -62 -13 -17 21 -3 217 25
340 13 55 27 154 31 220 4 68 13 132 20 147 8 15 14 48 14 73 0 36 5 51 25 69
23 21 26 33 29 112 2 49 11 115 20 148 19 67 83 206 103 221 7 6 16 33 19 60
3 28 9 59 14 70 4 11 13 46 20 78 6 31 15 57 19 57 10 0 41 101 41 136 0 16 8
41 17 54 10 13 17 31 18 40 0 8 12 38 27 66 35 67 58 72 146 29 37 -17 82 -44
100 -59 17 -15 32 -23 32 -17 0 6 9 11 20 11 11 0 28 9 37 19 9 11 20 18 25
15 4 -3 8 0 8 6 0 23 74 100 97 100 28 0 53 36 53 77 0 36 -58 160 -84 182
-11 9 -29 11 -55 7 -28 -4 -42 -2 -51 9 -7 9 -20 15 -29 13 -9 -1 -22 1 -29 6
-16 10 -70 15 -78 7z"/>
<path d="M13804 11101 c-3 -3 -29 -6 -59 -7 -71 -2 -127 -30 -151 -74 -13 -24
-36 -43 -72 -61 -63 -30 -93 -68 -117 -149 -10 -33 -22 -60 -26 -60 -9 0 -45
-108 -54 -162 -3 -21 -15 -57 -25 -80 -11 -24 -20 -62 -20 -84 0 -25 -6 -47
-15 -54 -9 -8 -15 -30 -15 -57 0 -74 -22 -187 -40 -203 -22 -20 -60 -115 -60
-151 0 -15 -4 -30 -9 -33 -4 -3 -11 -30 -15 -60 -3 -29 -15 -73 -26 -97 -11
-24 -20 -63 -20 -85 0 -23 -9 -61 -19 -84 -17 -38 -17 -46 -5 -76 20 -47 18
-67 -11 -94 -17 -16 -25 -34 -25 -58 0 -18 -12 -67 -26 -108 -21 -61 -25 -91
-23 -157 1 -45 -2 -90 -6 -99 -4 -9 -4 -22 -1 -27 4 -6 2 -18 -3 -28 -5 -10
-17 -52 -27 -95 -16 -71 -16 -78 -1 -101 15 -24 15 -26 -5 -39 -15 -10 -21
-26 -23 -63 -2 -28 -17 -98 -34 -157 -18 -59 -33 -138 -35 -177 -2 -38 -7 -74
-10 -79 -10 -17 -49 -275 -48 -321 1 -25 -4 -51 -10 -58 -8 -10 -8 -20 2 -38
16 -30 26 -31 40 -4 9 16 17 19 40 14 23 -5 32 -2 42 14 7 12 21 21 31 21 11
0 20 10 23 29 5 21 15 33 35 40 16 5 29 15 29 20 0 6 6 11 14 11 8 0 17 11 20
25 4 14 11 23 16 20 30 -19 120 106 120 165 0 46 21 91 59 125 l36 33 -24 26
c-22 23 -23 28 -11 75 6 27 18 56 27 62 8 7 25 34 38 59 13 25 31 52 40 60 9
7 22 25 30 40 8 15 27 41 44 59 17 18 31 41 31 51 0 9 9 25 20 35 11 10 20 24
20 32 0 7 11 22 24 34 15 13 22 28 19 39 -5 20 44 78 83 98 12 6 30 31 40 55
19 46 58 69 117 70 42 0 49 -13 51 -96 2 -80 1 -80 88 -189 l27 -34 -19 -64
c-17 -56 -18 -76 -10 -155 5 -49 10 -114 10 -144 0 -37 5 -60 17 -73 15 -16
32 -112 35 -188 0 -8 4 -59 9 -113 11 -107 34 -160 84 -193 22 -14 32 -15 65
-5 22 6 40 16 40 21 0 6 6 10 14 10 8 0 16 4 18 8 3 8 103 48 149 60 29 8 82
48 139 105 20 20 45 37 55 37 31 0 103 53 110 81 5 20 17 31 51 44 24 9 44 20
44 25 0 4 21 11 48 15 37 5 56 16 90 50 23 24 42 47 42 52 0 5 13 23 30 40 26
26 29 36 27 81 -2 52 -2 52 -47 67 -39 14 -45 14 -53 0 -4 -8 -21 -15 -36 -15
-16 0 -34 -7 -41 -15 -6 -8 -56 -44 -111 -81 -54 -37 -110 -82 -124 -100 -14
-19 -33 -34 -42 -34 -9 0 -39 -20 -68 -44 l-52 -45 -30 19 c-38 23 -48 37 -34
53 14 18 5 238 -12 279 -9 22 -11 43 -5 63 16 56 0 103 -53 157 -27 28 -49 52
-49 55 0 3 13 22 29 42 l29 37 -13 64 c-8 36 -14 82 -15 103 0 21 -9 56 -21
79 -16 31 -19 51 -14 84 5 34 1 52 -19 93 -15 28 -26 59 -26 70 0 37 -12 51
-54 61 -22 6 -55 18 -73 27 -31 16 -33 16 -95 -17 -66 -35 -196 -123 -213
-145 -6 -7 -38 -26 -71 -43 -57 -29 -99 -67 -134 -122 -19 -30 -100 -114 -123
-126 -15 -8 -139 -180 -185 -256 -19 -31 -43 -36 -62 -13 -17 21 -3 217 25
340 13 55 27 154 31 220 4 68 13 132 20 147 8 15 14 48 14 73 0 36 5 51 25 69
23 21 26 33 29 112 2 49 11 115 20 148 16 59 83 206 97 216 13 9 29 60 29 95
0 19 4 36 9 39 4 3 11 26 14 51 4 25 18 70 33 101 14 30 29 79 33 109 4 29 14
61 21 71 8 9 14 24 15 33 0 9 12 39 27 67 20 37 34 53 53 56 28 6 129 -37 181
-77 27 -21 36 -23 67 -14 19 5 38 16 41 25 3 8 10 12 16 9 5 -3 10 -1 10 5 0
23 74 100 97 100 28 0 53 36 53 77 0 36 -58 160 -84 182 -11 9 -29 11 -55 7
-28 -4 -42 -2 -51 9 -7 9 -20 15 -29 13 -9 -1 -22 1 -29 6 -16 10 -70 15 -78
7z"/>
<path d="M39014 11101 c-3 -3 -29 -6 -59 -7 -71 -2 -127 -30 -151 -74 -13 -24
-36 -43 -72 -61 -63 -30 -93 -68 -117 -149 -10 -33 -22 -60 -26 -60 -9 0 -45
-108 -54 -162 -3 -21 -15 -57 -25 -80 -11 -24 -20 -62 -20 -84 0 -25 -6 -47
-15 -54 -9 -8 -15 -30 -15 -57 0 -74 -22 -187 -40 -203 -22 -20 -60 -115 -60
-151 0 -15 -4 -30 -9 -33 -4 -3 -11 -30 -15 -60 -3 -29 -15 -73 -26 -97 -11
-24 -20 -63 -20 -85 0 -23 -9 -61 -19 -84 -17 -38 -17 -46 -5 -76 20 -47 18
-67 -11 -94 -17 -16 -25 -34 -25 -58 0 -18 -12 -67 -26 -108 -21 -61 -25 -91
-23 -157 1 -45 -2 -90 -6 -99 -4 -9 -4 -22 -1 -27 4 -6 2 -18 -3 -28 -5 -10
-17 -52 -27 -95 -16 -71 -16 -78 -1 -101 15 -24 15 -26 -5 -39 -15 -10 -21
-26 -23 -63 -2 -28 -17 -98 -34 -157 -18 -59 -33 -138 -35 -177 -2 -38 -7 -74
-10 -79 -10 -17 -49 -275 -48 -321 1 -25 -4 -51 -10 -58 -8 -10 -8 -20 2 -38
16 -30 26 -31 40 -4 9 16 17 19 40 14 23 -5 32 -2 42 14 7 12 21 21 31 21 11
0 20 10 23 29 5 21 15 33 35 40 16 5 29 15 29 20 0 6 6 11 14 11 8 0 17 11 20
25 4 14 11 23 16 20 30 -19 120 106 120 165 0 46 21 91 59 125 l36 33 -24 26
c-22 23 -23 28 -11 75 6 27 18 56 27 62 8 7 24 31 35 53 11 23 34 56 49 74 16
18 29 37 29 43 0 5 16 25 35 45 19 19 35 43 35 53 0 10 9 26 20 36 11 10 20
24 20 32 0 7 11 22 24 34 15 13 22 28 19 39 -5 20 44 78 83 98 12 6 30 31 40
55 19 46 58 69 117 70 42 0 49 -13 51 -96 2 -80 1 -80 88 -189 l27 -34 -19
-64 c-17 -56 -18 -76 -10 -155 5 -49 10 -114 10 -144 0 -37 5 -60 17 -73 15
-16 32 -112 35 -188 0 -8 4 -59 9 -113 11 -107 34 -160 84 -193 22 -14 32 -15
65 -5 22 6 40 16 40 21 0 6 6 10 14 10 8 0 16 4 18 8 3 8 103 48 149 60 29 8
82 48 139 105 20 20 45 37 55 37 31 0 103 53 110 81 5 20 17 31 51 44 24 9 44
20 44 25 0 4 21 11 48 15 37 5 56 16 90 50 23 24 42 47 42 52 0 5 13 23 30 40
26 26 29 36 27 81 -2 52 -2 52 -47 67 -39 14 -45 14 -53 0 -4 -8 -21 -15 -36
-15 -16 0 -34 -7 -41 -15 -6 -8 -56 -44 -111 -81 -54 -37 -110 -82 -124 -100
-14 -19 -33 -34 -42 -34 -9 0 -39 -20 -68 -44 l-52 -45 -30 19 c-38 23 -48 37
-35 53 14 17 5 239 -11 279 -10 24 -11 44 -4 71 12 50 -12 116 -56 153 -50 41
-52 50 -18 92 l29 38 -13 64 c-8 36 -14 82 -15 103 0 21 -9 56 -21 79 -16 31
-19 51 -14 84 5 34 1 52 -19 93 -15 28 -26 59 -26 70 0 37 -12 51 -54 61 -22
6 -55 18 -73 27 -31 16 -33 16 -95 -17 -66 -35 -196 -123 -213 -145 -6 -7 -38
-26 -71 -43 -57 -29 -99 -67 -134 -122 -19 -30 -100 -114 -122 -126 -15 -8
-185 -244 -195 -271 -7 -18 -38 -16 -53 2 -17 21 -3 217 25 340 13 55 27 154
31 220 4 68 13 132 20 147 8 15 14 48 14 73 0 36 5 51 25 69 23 21 26 33 29
112 2 49 11 115 20 147 17 61 82 208 96 217 14 9 30 59 30 95 0 19 4 36 9 39
4 3 11 26 14 51 4 25 18 70 33 101 14 30 29 79 33 109 4 29 14 61 21 71 8 9
14 24 15 33 0 9 12 39 27 67 20 37 34 53 53 56 28 6 129 -37 181 -77 27 -21
36 -23 67 -14 19 5 38 16 41 25 3 8 10 12 16 9 5 -3 10 -1 10 5 0 23 74 100
97 100 28 0 53 36 53 77 0 36 -58 160 -84 182 -11 9 -29 11 -55 7 -28 -4 -42
-2 -51 9 -7 9 -20 15 -29 13 -9 -1 -22 1 -29 6 -16 10 -70 15 -78 7z"/>
<path d="M30203 10876 c-45 -33 -85 -69 -89 -79 -4 -12 -13 -17 -24 -14 -33 9
-51 -11 -44 -49 6 -33 5 -34 -24 -34 -38 0 -82 -19 -82 -35 0 -7 -42 -31 -92
-55 -68 -32 -112 -45 -163 -50 -108 -11 -252 -58 -284 -93 -61 -68 -77 -84
-100 -100 -23 -15 -24 -18 -8 -35 9 -10 20 -33 23 -50 4 -17 11 -29 16 -26 6
4 13 2 17 -4 4 -6 25 -12 48 -13 32 -2 49 3 78 25 20 16 39 34 42 42 3 8 15
14 27 14 12 0 27 5 33 11 9 9 20 9 44 0 43 -15 50 -14 47 7 -2 14 5 17 41 17
27 0 46 5 49 13 7 23 76 50 125 50 l47 -1 0 -62 c0 -57 3 -64 26 -80 24 -16
26 -21 21 -67 -4 -28 -10 -55 -15 -62 -13 -15 -26 -76 -23 -101 2 -11 9 -27
17 -36 8 -8 14 -32 14 -52 0 -19 4 -47 10 -61 5 -14 6 -26 1 -26 -5 0 -14 -20
-21 -45 -10 -35 -10 -52 -1 -71 16 -37 14 -61 -13 -107 -17 -30 -24 -59 -24
-100 -1 -31 -6 -67 -13 -78 -8 -17 -8 -27 2 -46 12 -22 11 -27 -5 -38 -15 -11
-17 -21 -11 -57 17 -106 11 -149 -29 -215 -45 -74 -59 -156 -33 -194 10 -13
14 -32 11 -45 -3 -12 0 -32 6 -44 10 -18 8 -26 -9 -44 -12 -13 -27 -50 -34
-83 -7 -33 -17 -67 -24 -74 -19 -23 -65 -159 -59 -175 3 -8 2 -14 -3 -14 -5 0
-14 -15 -21 -32 -7 -18 -18 -46 -25 -63 -7 -16 -19 -66 -26 -110 -6 -44 -20
-91 -30 -105 -9 -14 -21 -41 -26 -60 -6 -23 -16 -36 -29 -38 -23 -5 -65 -42
-59 -52 3 -4 20 -11 39 -14 30 -6 37 -13 49 -49 11 -33 19 -43 40 -45 17 -2
29 3 36 17 6 11 21 23 33 27 73 22 146 70 175 116 4 7 17 18 28 24 15 8 22 29
30 80 11 72 23 102 49 124 9 7 16 19 16 27 0 8 11 38 24 66 14 29 34 99 46
157 12 58 28 118 36 134 8 18 16 75 19 144 5 108 11 131 37 132 5 0 68 -80 90
-114 4 -6 14 -41 24 -78 14 -55 20 -66 30 -57 11 9 18 8 29 -1 21 -18 19 -29
-10 -42 l-25 -11 23 -26 c13 -14 40 -52 60 -83 20 -32 48 -65 62 -74 17 -11
25 -25 25 -44 0 -22 5 -29 22 -32 12 -2 40 -26 62 -53 41 -50 173 -153 204
-158 25 -5 100 -45 104 -56 1 -6 34 -15 73 -21 38 -6 84 -20 102 -31 19 -12
41 -18 52 -14 14 4 21 0 26 -15 6 -18 12 -21 43 -15 22 3 57 0 85 -9 27 -8 63
-12 81 -9 23 4 48 -3 84 -21 59 -30 83 -32 140 -12 41 15 41 15 76 -20 36 -36
55 -40 130 -27 26 4 40 12 44 25 2 10 10 18 17 18 6 0 20 9 30 20 10 11 23 20
30 20 15 0 35 43 35 77 0 14 -7 52 -16 85 -8 34 -16 99 -18 147 -3 97 -19 140
-61 159 -22 10 -31 9 -56 -5 -16 -10 -29 -25 -29 -34 0 -10 -9 -21 -20 -24
-11 -4 -34 -18 -51 -32 -30 -25 -30 -27 -23 -90 8 -83 -7 -103 -77 -103 -26 0
-51 4 -54 10 -3 5 -27 10 -53 9 -26 0 -69 4 -97 9 -27 6 -86 17 -130 26 -64
12 -84 20 -103 42 -13 15 -50 37 -83 49 -90 32 -174 111 -217 205 -19 41 -51
93 -72 116 -32 35 -39 51 -45 102 -4 34 -13 66 -21 73 -8 6 -14 24 -14 39 0
15 -10 39 -21 54 -18 23 -21 36 -16 78 4 28 8 52 9 53 198 142 298 227 298
253 0 4 10 12 23 17 12 6 52 51 89 100 50 66 78 95 108 108 22 10 40 23 40 29
0 6 16 32 35 59 19 27 32 55 29 62 -3 8 6 21 20 30 14 9 44 48 66 86 36 61 46
82 49 112 1 4 10 9 21 12 42 11 18 122 -29 134 -38 9 -138 -14 -216 -51 -38
-18 -83 -36 -98 -40 -16 -4 -45 -18 -65 -31 -20 -13 -66 -31 -102 -40 -36 -9
-90 -27 -120 -39 -30 -13 -60 -21 -67 -19 -6 2 -25 -3 -42 -11 -16 -9 -37 -16
-47 -16 -16 0 -112 -73 -127 -97 -4 -7 -13 -13 -20 -13 -7 0 -43 -31 -80 -69
-43 -43 -90 -78 -128 -96 -41 -20 -59 -34 -59 -47 0 -16 -6 -19 -32 -16 -29 3
-35 8 -46 43 -15 47 -8 105 14 105 11 0 14 15 13 73 0 39 4 85 10 100 13 34
15 97 2 97 -11 0 14 111 34 150 8 16 15 52 15 80 0 37 7 61 25 90 14 22 25 48
25 59 0 10 6 34 14 52 7 19 16 60 20 91 3 32 15 82 27 113 11 30 19 66 17 78
-1 13 5 32 15 41 9 10 17 32 17 51 0 19 11 59 24 88 18 42 22 63 17 98 -11 69
-9 68 -121 83 -18 3 -47 -13 -107 -58z m770 -1235 c-1 -23 -10 -41 -26 -55
-14 -12 -39 -49 -56 -83 -37 -75 -80 -126 -121 -143 -16 -7 -30 -16 -30 -21 0
-5 -22 -20 -48 -33 -27 -13 -54 -31 -60 -39 -7 -8 -27 -21 -45 -28 -32 -12
-107 -85 -107 -102 0 -5 -21 -7 -46 -4 -40 4 -47 2 -56 -18 -7 -15 -31 -31
-72 -46 -95 -35 -136 -24 -136 36 0 40 52 115 80 115 10 0 24 9 30 20 6 11 35
31 64 45 55 26 146 108 229 207 36 44 64 65 115 88 37 17 75 35 84 41 10 5 26
9 35 9 10 0 45 11 78 25 76 31 90 29 88 -14z"/>
<path d="M16055 10803 c-22 -8 -55 -22 -73 -31 -25 -12 -38 -13 -50 -5 -26 16
-68 -10 -92 -57 -11 -22 -34 -47 -50 -55 -17 -9 -30 -22 -30 -29 0 -8 -12 -29
-26 -46 -25 -30 -26 -33 -14 -73 33 -110 84 -156 174 -157 67 0 142 78 195
204 12 26 30 60 41 74 17 22 19 34 14 91 -7 72 -18 102 -37 100 -7 -1 -30 -8
-52 -16z"/>
<path d="M28950 10794 c-15 -17 -134 -89 -192 -116 -21 -9 -38 -21 -38 -26 0
-5 -18 -17 -39 -27 -22 -10 -52 -31 -66 -47 -14 -16 -31 -26 -37 -22 -8 5 -9
2 -5 -9 4 -11 -2 -22 -18 -33 -13 -8 -32 -32 -43 -52 -10 -19 -26 -40 -36 -46
-10 -6 -29 -21 -42 -33 -13 -13 -32 -23 -43 -23 -12 0 -31 -18 -51 -50 -17
-27 -39 -52 -49 -55 -33 -10 -84 -64 -87 -92 -2 -15 -5 -36 -6 -47 -2 -10 8
-27 24 -39 24 -18 30 -18 57 -7 17 7 37 10 46 6 8 -3 37 -40 65 -82 35 -54 48
-83 44 -98 -3 -14 1 -28 10 -35 25 -21 20 -85 -10 -133 -22 -34 -24 -45 -15
-65 15 -34 3 -102 -25 -140 -13 -17 -24 -36 -24 -40 0 -5 -11 -38 -25 -74 -14
-35 -27 -78 -30 -94 -2 -17 -13 -54 -24 -83 -12 -29 -21 -63 -21 -75 0 -12
-11 -44 -24 -71 -13 -27 -22 -55 -19 -63 3 -7 -4 -24 -16 -39 -13 -17 -19 -35
-15 -48 3 -14 -1 -28 -10 -35 -9 -8 -16 -27 -16 -43 0 -31 -16 -68 -34 -80 -7
-5 -12 -51 -13 -123 -1 -120 -21 -208 -49 -219 -7 -3 -14 -13 -14 -22 0 -9 -7
-22 -15 -28 -21 -15 -21 -51 0 -120 10 -33 15 -71 11 -88 -5 -25 5 -52 51
-138 37 -72 64 -112 81 -119 24 -12 29 -9 113 62 8 7 21 11 27 9 7 -2 27 13
45 33 17 21 50 46 72 57 57 27 87 45 94 56 13 20 83 61 96 56 17 -7 125 44
132 62 3 8 12 14 20 14 8 0 24 11 35 25 11 14 24 23 29 20 8 -6 58 21 70 38 3
4 13 5 22 2 11 -5 21 3 32 24 10 20 23 31 38 31 27 0 33 5 73 51 40 46 51 107
28 152 -9 17 -18 33 -19 35 -2 2 -32 -15 -66 -37 -35 -23 -67 -41 -72 -41 -5
0 -22 -11 -39 -25 -16 -14 -36 -25 -44 -25 -8 0 -14 -4 -14 -8 0 -7 -91 -52
-106 -52 -3 0 -20 -11 -38 -25 -18 -14 -39 -25 -46 -25 -13 0 -45 -19 -123
-72 -24 -17 -30 -17 -48 -4 -12 8 -28 27 -36 43 -13 26 -13 29 7 45 l21 17
-23 43 c-18 33 -24 63 -26 128 -8 219 2 322 33 334 9 3 15 18 15 37 0 17 15
77 34 133 20 60 32 113 29 128 -3 15 2 39 10 55 22 40 83 254 97 341 6 39 16
72 21 72 4 0 6 7 3 15 -3 8 1 24 10 37 9 13 16 43 16 69 0 57 7 79 26 79 10 0
14 12 14 39 0 24 8 48 21 65 20 26 21 28 3 47 -17 19 -17 20 2 47 23 30 35 57
40 87 14 91 46 203 68 233 13 20 50 64 80 97 36 39 59 73 63 95 12 57 8 157
-6 174 -17 20 -55 20 -71 0z"/>
<path d="M11575 10649 c-11 -5 -46 -18 -78 -30 -31 -11 -79 -38 -106 -59 -27
-21 -65 -46 -85 -54 -20 -8 -41 -25 -47 -38 -5 -13 -24 -30 -41 -37 -17 -8
-33 -22 -35 -31 -3 -10 -22 -23 -43 -29 -22 -6 -45 -19 -52 -29 -7 -10 -26
-26 -43 -36 -39 -26 -230 -220 -266 -271 -15 -22 -62 -76 -104 -120 -42 -44
-78 -92 -82 -107 -3 -16 -9 -28 -14 -28 -5 0 -9 -9 -9 -19 0 -12 -9 -21 -25
-25 -13 -3 -30 -16 -36 -29 -7 -12 -15 -24 -19 -27 -20 -15 -80 -105 -80 -120
0 -10 -22 -33 -50 -51 -46 -32 -49 -37 -50 -78 0 -26 -10 -63 -25 -93 -14 -27
-25 -59 -25 -70 0 -11 -8 -22 -20 -25 -15 -4 -20 -14 -20 -38 0 -28 -5 -35
-31 -44 -31 -11 -32 -11 -25 -62 7 -53 -14 -133 -41 -154 -9 -8 -10 -19 -1
-50 10 -36 8 -46 -16 -94 -15 -29 -30 -74 -32 -100 -16 -171 -17 -164 10 -225
15 -33 37 -69 50 -81 14 -13 27 -40 31 -65 6 -33 19 -56 56 -95 41 -43 60 -55
123 -75 52 -16 77 -29 84 -44 9 -19 32 -26 195 -55 202 -35 275 -35 284 0 4
13 19 20 59 25 39 4 54 11 54 21 0 12 9 14 39 10 27 -3 41 -1 45 8 2 7 24 16
48 20 82 14 167 46 211 79 40 30 69 40 147 50 17 2 26 10 28 24 4 23 56 57 72
47 10 -6 120 56 140 80 7 8 25 15 40 15 16 0 30 4 32 9 5 13 116 101 128 101
17 0 135 62 139 73 9 25 75 87 92 87 20 0 111 65 118 84 7 19 72 101 78 97 11
-7 93 84 99 111 3 16 12 32 20 35 8 3 21 18 30 34 8 16 20 29 27 29 8 0 17 21
23 50 8 39 8 50 -2 50 -7 0 -18 16 -24 35 -6 19 -16 35 -21 35 -5 0 -69 -29
-142 -63 -73 -35 -183 -85 -244 -112 -137 -59 -145 -75 -59 -118 48 -23 56
-31 63 -64 4 -21 8 -40 8 -43 0 -12 -257 -250 -271 -250 -8 0 -42 -18 -75 -40
-35 -24 -100 -54 -157 -73 -56 -18 -126 -50 -163 -74 -36 -24 -73 -43 -83 -43
-18 0 -240 -65 -256 -75 -5 -3 -18 -2 -27 4 -13 6 -42 3 -96 -12 -70 -18 -78
-19 -94 -4 -16 14 -22 13 -62 -7 -41 -22 -47 -22 -118 -10 -65 12 -80 19 -129
60 -30 26 -64 60 -75 76 -20 27 -21 27 -50 13 -27 -15 -29 -14 -29 3 0 10 -13
45 -29 78 -39 77 -53 142 -50 231 2 64 0 74 -20 90 -22 18 -23 20 -10 123 8
74 17 111 30 125 10 11 27 56 38 100 11 44 27 98 35 120 17 46 21 95 6 95 -18
0 -11 15 12 25 23 11 131 203 121 218 -3 4 16 40 41 78 25 38 46 73 46 79 0 5
5 10 11 10 15 0 75 57 114 111 19 25 58 65 89 89 30 24 59 54 65 67 6 13 16
23 23 23 7 0 20 15 28 33 13 27 21 32 50 33 40 1 163 73 181 105 14 27 82 59
123 59 20 0 56 -5 80 -12 l44 -12 12 -95 c18 -140 8 -194 -45 -254 -34 -39
-53 -77 -91 -181 -26 -72 -55 -149 -65 -171 -28 -65 -29 -85 -8 -127 14 -27
32 -44 57 -55 20 -8 40 -20 43 -25 4 -6 15 -8 25 -6 14 2 20 13 22 41 2 22 7
35 13 31 6 -3 46 31 90 77 56 58 84 97 97 131 13 38 21 48 39 48 27 0 46 55
37 111 -5 26 -1 44 12 65 11 16 20 49 21 75 1 26 8 58 16 71 8 12 22 59 31
103 32 154 -2 466 -48 457 -10 -2 -16 4 -16 17 0 24 -51 44 -83 32 -12 -5 -31
-5 -42 -1 -11 4 -29 3 -40 -1z"/>
<path d="M26361 10564 l-32 -35 -70 10 c-57 9 -81 8 -131 -4 -58 -16 -61 -16
-82 4 -14 13 -36 21 -57 21 -19 0 -51 4 -72 9 -32 8 -45 6 -74 -12 -36 -21
-134 -37 -243 -40 -30 -1 -61 -6 -67 -10 -14 -9 -48 6 -60 28 -10 17 -153 22
-153 5 0 -5 -37 -8 -83 -8 -84 1 -127 -5 -185 -25 -29 -10 -34 -9 -48 12 -12
17 -23 22 -43 18 -14 -3 -52 1 -84 9 -32 8 -82 16 -111 17 -29 1 -61 8 -70 16
-14 11 -16 11 -16 -2 0 -11 -15 -17 -52 -22 -53 -7 -157 -62 -181 -95 -7 -9
-38 -28 -69 -43 -53 -26 -57 -31 -67 -75 -9 -46 -9 -47 32 -93 23 -26 48 -55
55 -64 21 -25 64 -15 80 18 8 17 21 27 34 27 12 0 29 7 39 16 14 12 21 13 36
3 26 -16 80 -5 123 24 l34 24 48 -19 c61 -23 88 -23 88 0 1 12 13 3 39 -28 26
-30 36 -49 30 -56 -6 -7 -6 -21 0 -36 17 -45 -2 -174 -32 -226 -19 -33 -20
-35 -3 -48 14 -10 15 -16 6 -33 -9 -17 -8 -21 5 -21 24 0 28 -25 10 -60 -10
-20 -15 -44 -11 -64 3 -19 0 -38 -9 -50 -8 -11 -15 -36 -15 -56 0 -27 -7 -43
-28 -63 -15 -15 -33 -27 -39 -27 -32 0 -126 -56 -167 -99 -45 -49 -45 -50 -32
-87 9 -28 10 -45 2 -66 -9 -24 -7 -31 18 -57 23 -24 40 -31 85 -36 31 -3 73
-8 94 -10 28 -4 37 -2 37 10 0 23 28 18 44 -7 28 -46 28 -62 -4 -83 -17 -11
-30 -26 -30 -33 0 -7 -7 -23 -15 -36 -14 -21 -14 -24 0 -36 20 -16 19 -39 -2
-62 -9 -10 -18 -31 -20 -46 -5 -53 -21 -108 -42 -147 -14 -25 -19 -49 -16 -66
6 -28 -38 -161 -60 -179 -8 -6 -26 -50 -41 -97 -38 -118 -108 -215 -189 -261
-33 -18 -73 -46 -90 -62 -16 -15 -47 -34 -68 -41 -51 -18 -55 -25 -60 -93 -4
-52 -8 -62 -40 -90 l-35 -31 14 -46 14 -45 72 8 c39 5 86 17 102 27 17 10 49
21 70 24 56 9 146 71 146 101 0 12 9 31 21 42 12 10 33 39 47 64 14 25 45 69
69 98 24 30 43 60 43 68 0 23 49 156 63 173 26 31 117 314 117 364 0 35 4 47
15 47 10 0 15 11 15 35 0 20 12 57 29 88 25 43 31 68 36 147 4 55 13 105 22
118 9 14 12 34 8 51 -8 37 24 68 54 52 15 -9 22 -8 28 2 12 21 148 30 164 11
14 -17 39 -19 39 -3 0 7 12 9 33 6 17 -3 71 -11 118 -18 85 -12 86 -13 98 -46
7 -18 18 -33 24 -31 24 4 54 -13 65 -37 13 -29 29 -31 60 -9 12 8 27 12 33 9
5 -4 19 1 29 10 11 10 48 34 82 54 35 20 67 46 72 58 6 12 36 34 69 49 46 23
60 34 64 57 3 15 14 32 24 38 13 6 19 21 19 43 0 29 -4 34 -29 39 -20 4 -36
18 -51 45 l-22 39 -60 -18 c-52 -16 -71 -18 -151 -8 -51 5 -171 17 -267 25
-209 17 -207 17 -222 32 -7 7 -26 12 -42 12 -42 1 -62 18 -69 63 -4 28 -2 39
9 44 9 3 14 19 14 45 0 22 9 74 19 116 11 43 19 91 19 107 0 17 6 57 12 90 6
33 15 90 18 128 7 66 8 68 52 97 43 28 45 29 48 10 4 -23 24 -26 40 -7 14 16
155 5 178 -14 11 -9 18 -8 32 5 21 18 93 22 122 6 11 -6 52 -14 92 -18 63 -6
74 -10 84 -31 16 -31 37 -43 68 -37 30 5 139 85 177 129 17 20 37 31 56 33 39
2 70 19 83 44 6 11 16 20 23 20 7 0 19 16 26 36 11 31 16 35 38 29 l25 -6 -31
39 c-17 22 -31 51 -31 65 0 22 -16 37 -40 37 -4 0 -22 -16 -39 -36z"/>
<path d="M33930 10560 c-14 -4 -47 -8 -75 -9 -82 -2 -190 -51 -263 -121 -34
-33 -62 -67 -62 -75 0 -9 -11 -21 -25 -27 -13 -6 -27 -20 -31 -31 -3 -11 -30
-46 -60 -78 -30 -32 -54 -63 -54 -69 0 -5 -7 -10 -15 -10 -8 0 -15 -9 -15 -19
0 -11 -5 -23 -11 -26 -6 -4 -26 -40 -45 -81 -20 -40 -40 -76 -45 -79 -5 -4 -9
-24 -9 -46 0 -27 -6 -45 -20 -56 -11 -10 -20 -26 -20 -36 0 -10 -7 -25 -15
-33 -8 -9 -15 -28 -15 -43 0 -16 -14 -61 -30 -102 -17 -41 -42 -128 -55 -194
-14 -66 -29 -136 -35 -155 -5 -19 -10 -54 -10 -78 0 -24 -5 -53 -12 -65 -8
-14 -11 -56 -9 -113 1 -53 -2 -94 -7 -98 -7 -4 -7 -19 0 -43 6 -22 7 -62 3
-98 -13 -104 -13 -235 1 -235 6 0 14 -18 18 -41 4 -22 18 -62 32 -90 14 -27
24 -56 20 -64 -3 -8 0 -17 5 -21 6 -3 2 -12 -10 -21 -26 -18 -27 -30 -2 -38
11 -3 23 -15 26 -26 4 -10 15 -19 25 -19 10 0 21 -9 25 -19 9 -30 106 -99 170
-121 31 -11 60 -18 64 -16 3 2 17 -1 30 -8 20 -11 29 -10 65 10 23 13 53 35
66 49 13 14 32 25 43 25 38 0 340 281 329 308 -3 10 -1 13 7 8 13 -8 46 26 57
59 4 11 33 48 65 82 31 34 60 71 64 82 3 12 10 21 15 21 5 0 14 17 20 38 7 20
22 48 34 62 41 46 80 115 78 136 -2 28 56 67 131 89 48 14 59 22 81 59 15 25
38 48 56 56 16 7 30 16 30 19 0 4 -13 20 -30 36 -16 16 -30 35 -30 42 0 7 16
31 36 53 31 35 35 44 30 74 -5 25 -1 43 15 70 11 19 17 41 13 47 -4 7 -6 32
-5 57 0 25 -4 51 -10 58 -7 9 -9 33 -4 70 6 50 4 59 -17 81 -34 37 -96 66
-153 73 -49 5 -50 6 -64 50 -8 24 -24 52 -35 61 -16 13 -21 30 -23 71 -3 98
-11 125 -48 176 -26 37 -35 57 -30 73 5 15 -2 31 -23 58 -17 21 -33 55 -37 81
-9 56 -34 105 -75 148 -32 33 -65 40 -120 22z m-182 -364 c11 -24 25 -47 31
-50 6 -4 11 -26 11 -50 0 -23 5 -47 11 -53 16 -16 69 -143 69 -164 0 -9 7 -22
15 -29 9 -7 14 -18 12 -24 -2 -6 4 -34 14 -62 13 -37 17 -66 12 -103 -5 -47
-4 -53 14 -57 17 -5 21 -17 27 -66 3 -34 11 -67 16 -74 8 -9 6 -16 -8 -26 -30
-21 -34 -37 -18 -60 11 -15 16 -45 16 -87 0 -46 5 -70 16 -83 15 -16 15 -18 1
-24 -9 -3 -19 -19 -22 -35 -8 -34 -56 -76 -136 -119 -69 -37 -85 -61 -33 -53
24 4 40 1 53 -11 10 -9 39 -23 64 -32 l47 -16 -17 -36 c-24 -56 -27 -86 -9
-101 24 -20 20 -28 -19 -41 -24 -8 -35 -18 -35 -31 0 -11 -13 -25 -31 -34 -23
-12 -41 -38 -71 -101 -22 -46 -46 -84 -52 -84 -6 0 -20 -16 -30 -34 -26 -48
-56 -74 -91 -78 -23 -2 -33 -12 -50 -46 -12 -26 -29 -45 -42 -48 -13 -4 -23
-9 -23 -13 0 -4 -15 -14 -33 -23 -32 -15 -34 -15 -46 4 -10 16 -19 18 -50 13
-36 -6 -42 -3 -88 42 -48 47 -92 130 -85 162 2 7 -9 26 -24 42 -26 27 -27 31
-21 104 4 41 3 75 -2 75 -8 0 -35 50 -29 55 2 1 14 8 27 15 22 11 23 14 8 24
-14 11 -14 20 5 102 11 49 21 125 22 169 1 44 8 91 15 104 8 14 11 38 7 59 -4
27 3 56 31 121 20 47 44 95 54 106 9 11 20 39 24 63 4 23 18 56 31 71 15 18
24 42 24 63 0 18 6 42 14 53 7 11 17 35 21 53 6 30 59 152 103 240 9 19 36 54
60 79 24 26 54 65 68 89 22 37 75 83 96 84 4 0 16 -20 26 -44z"/>
<path d="M3723 10485 c-48 -21 -144 -89 -176 -124 -15 -17 -33 -31 -40 -31
-22 0 -62 -51 -102 -127 -29 -57 -36 -81 -33 -110 3 -25 -2 -54 -15 -83 -11
-25 -20 -59 -18 -77 1 -23 -4 -35 -17 -42 -11 -6 -29 -33 -41 -62 -18 -41 -26
-50 -42 -46 -10 3 -19 1 -19 -3 0 -24 -54 -70 -88 -75 -20 -4 -50 -12 -67 -18
-16 -6 -43 -12 -60 -13 -81 -5 -157 -14 -166 -20 -6 -3 -34 -9 -62 -13 -47 -5
-53 -9 -74 -46 -34 -60 -38 -99 -18 -166 l18 -59 67 0 c62 0 69 2 85 26 14 22
22 25 48 19 88 -18 115 -17 157 6 l41 23 46 -24 c25 -13 56 -40 69 -60 l24
-36 -44 -120 c-28 -77 -46 -144 -50 -191 -4 -40 -21 -112 -37 -160 -22 -64
-28 -98 -24 -125 6 -35 5 -38 -22 -43 -15 -4 -32 -8 -38 -9 -5 -2 -10 -23 -11
-47 -1 -63 -40 -158 -70 -171 -18 -9 -24 -19 -24 -45 0 -19 -7 -48 -16 -64
-14 -29 -13 -43 20 -222 19 -106 44 -212 55 -237 11 -25 23 -65 27 -88 6 -36
14 -48 50 -73 l43 -29 33 20 c18 11 41 20 50 20 10 0 74 22 143 50 102 41 138
61 197 110 51 43 79 60 100 60 21 0 46 14 86 49 34 30 81 59 117 72 40 15 73
35 98 63 21 23 68 64 105 91 50 38 73 64 94 105 32 63 60 164 51 185 -15 41
-133 -11 -189 -83 -21 -28 -48 -54 -59 -58 -25 -8 -106 -85 -99 -95 2 -4 -10
-10 -27 -14 -18 -4 -50 -24 -73 -45 -53 -49 -96 -70 -141 -70 -37 0 -95 -24
-95 -39 0 -12 -79 -45 -87 -37 -4 4 -24 69 -43 144 l-36 137 18 165 c16 150
17 170 3 221 -17 64 -14 81 21 104 22 14 24 22 24 92 0 65 4 81 24 108 17 22
26 51 31 101 4 38 14 78 21 89 10 13 12 34 8 66 -6 45 -5 47 37 81 24 19 51
39 59 43 13 8 196 23 355 29 72 3 161 29 220 66 19 12 60 25 92 30 47 8 63 16
85 42 15 18 28 36 28 40 0 4 -14 23 -31 43 -21 24 -40 35 -58 35 -15 0 -31 4
-37 10 -19 19 -165 23 -244 6 -97 -21 -180 -20 -224 0 -26 13 -40 14 -64 6
-57 -20 -67 21 -27 112 14 31 25 71 25 89 0 18 9 52 20 76 11 24 20 51 20 61
0 10 14 44 30 75 24 45 30 70 30 116 0 46 7 73 30 119 l30 60 -24 25 c-28 28
-56 31 -103 10z"/>
<path d="M44134 10474 c-58 -30 -108 -66 -149 -106 -16 -15 -46 -38 -65 -51
-51 -32 -122 -168 -116 -220 3 -25 -3 -54 -15 -80 -10 -23 -19 -59 -19 -80 0
-25 -5 -40 -15 -44 -18 -6 -55 -74 -55 -99 0 -12 -6 -15 -23 -12 -19 4 -28 -3
-45 -33 -19 -33 -28 -39 -69 -45 -27 -3 -57 -11 -68 -17 -20 -10 -40 -13 -140
-20 -27 -2 -72 -9 -100 -15 -27 -6 -62 -14 -77 -17 -20 -4 -33 -18 -52 -59
-31 -64 -31 -72 -10 -148 l17 -58 67 0 c63 0 70 2 88 27 20 27 21 27 66 15 66
-17 104 -15 137 9 22 15 37 19 57 14 37 -9 89 -50 107 -85 14 -28 13 -35 -25
-137 -26 -67 -45 -139 -51 -191 -6 -46 -24 -122 -40 -169 -21 -63 -27 -96 -23
-124 6 -36 5 -38 -22 -44 -53 -12 -54 -13 -48 -43 4 -18 -4 -56 -21 -105 -22
-60 -32 -77 -51 -81 -20 -5 -24 -13 -24 -42 0 -19 -7 -48 -15 -64 -14 -27 -12
-44 20 -221 20 -106 44 -211 54 -234 10 -24 22 -60 25 -82 9 -48 12 -54 60
-85 l38 -26 32 19 c17 10 38 19 48 19 9 0 76 23 149 52 113 44 141 60 198 110
47 42 73 58 94 58 20 0 48 16 93 55 36 30 72 55 80 55 30 0 100 43 144 88 25
26 72 66 104 90 46 35 63 55 85 105 34 74 53 150 45 171 -3 9 -16 16 -28 16
-45 -1 -156 -66 -156 -92 0 -12 -61 -68 -74 -68 -15 0 -86 -72 -86 -87 0 -6
-14 -15 -31 -18 -18 -4 -50 -24 -73 -45 -53 -48 -96 -70 -140 -70 -38 0 -86
-18 -86 -32 0 -4 -20 -18 -46 -30 -35 -18 -47 -20 -53 -10 -4 7 -23 72 -41
143 l-33 131 17 172 c14 150 15 177 2 219 -17 56 -12 81 20 102 22 14 24 22
24 91 0 64 4 80 24 107 17 22 27 51 32 97 3 36 13 78 21 94 10 19 13 43 9 71
-7 40 -5 43 36 77 24 19 50 38 58 43 14 8 204 24 355 29 75 2 104 11 204 59
35 17 86 34 115 38 40 7 57 15 78 41 30 36 29 45 -5 88 -15 20 -31 29 -52 29
-17 1 -35 5 -41 11 -19 19 -165 23 -244 6 -95 -20 -169 -20 -220 0 -30 12 -47
14 -69 6 -56 -20 -65 16 -26 108 14 33 25 73 25 89 0 16 9 50 20 76 11 26 20
55 20 64 0 10 13 42 30 72 24 44 30 66 30 118 0 53 5 74 30 118 33 57 30 81
-10 103 -29 16 -53 12 -106 -16z"/>
<path d="M867 10286 c-55 -23 -75 -35 -105 -63 -7 -7 -21 -13 -31 -13 -10 0
-33 -13 -51 -30 -18 -16 -39 -30 -45 -30 -6 0 -21 -13 -32 -29 -15 -19 -37
-32 -68 -40 -70 -18 -248 -106 -362 -180 l-103 -66 3 -45 c2 -41 5 -46 42 -67
33 -19 42 -20 55 -9 36 32 156 77 210 79 l55 2 3 -65 c3 -63 3 -64 -16 -47
-18 16 -20 16 -26 2 -12 -33 -7 -55 14 -55 11 0 20 -6 20 -14 0 -29 -23 -76
-37 -76 -11 0 -13 -5 -8 -17 9 -20 9 -26 -1 -101 l-7 -53 -28 27 -29 28 0
-112 c0 -63 -4 -113 -10 -117 -34 -21 -69 -175 -40 -175 21 0 21 -29 2 -57
-11 -15 -23 -45 -27 -65 -3 -21 -10 -38 -15 -38 -17 0 -40 -58 -40 -102 0 -27
-9 -59 -24 -85 l-24 -41 24 -35 23 -35 -25 -74 c-16 -48 -23 -84 -19 -105 4
-22 -7 -68 -35 -154 -32 -94 -39 -128 -32 -143 6 -12 13 -29 16 -38 8 -26 87
-25 110 1 10 10 34 22 54 26 20 4 64 18 98 31 33 13 73 24 87 24 15 0 27 4 27
10 0 5 38 27 84 49 64 29 88 46 100 70 13 24 23 31 47 31 24 0 52 18 124 79
51 44 109 87 129 95 43 18 134 94 142 119 3 10 22 29 42 42 52 33 151 137 361
377 57 65 107 115 112 112 5 -3 7 -21 3 -40 -3 -19 -2 -40 4 -47 7 -8 7 -50 1
-127 -6 -77 -5 -165 3 -264 11 -144 13 -151 42 -184 29 -33 29 -34 12 -66
l-17 -32 59 -129 59 -130 42 -3 c31 -2 45 -9 58 -28 32 -49 45 -48 123 11 39
29 116 102 170 160 53 59 111 116 129 127 26 17 31 26 31 59 0 36 -3 40 -31
46 -17 3 -36 14 -42 24 -16 25 -45 24 -67 -3 -16 -20 -20 -21 -42 -9 -15 7
-39 41 -58 81 -31 64 -33 72 -22 108 10 31 9 49 -3 88 -21 69 -19 220 6 479
19 193 24 225 46 263 15 26 44 122 70 230 42 174 44 189 30 214 -14 25 -14 28
8 48 23 21 23 23 7 56 -14 30 -20 34 -54 34 -24 0 -41 -5 -44 -14 -3 -8 -18
-16 -33 -19 -15 -3 -42 -20 -60 -36 -18 -17 -42 -31 -52 -31 -50 0 -184 -98
-206 -152 -7 -15 -18 -28 -26 -28 -9 0 -22 -41 -42 -132 -15 -73 -35 -150 -43
-170 -8 -21 -12 -44 -9 -52 8 -21 -27 -48 -59 -44 -27 3 -30 -1 -54 -67 -15
-42 -32 -71 -41 -73 -9 -2 -31 -23 -48 -47 -23 -32 -39 -45 -56 -45 -13 0 -29
-6 -35 -12 -52 -63 -90 -114 -90 -120 0 -5 -6 -8 -13 -8 -7 0 -26 -27 -42 -60
-16 -33 -32 -60 -36 -60 -5 0 -57 -47 -116 -105 -59 -57 -113 -105 -119 -105
-7 0 -23 -15 -37 -34 -15 -18 -38 -36 -51 -40 -14 -3 -30 -15 -36 -26 -9 -17
-46 -44 -145 -105 -16 -10 -38 -29 -48 -41 -9 -12 -34 -28 -55 -35 -20 -6 -44
-18 -54 -26 -9 -8 -30 -13 -50 -11 -28 3 -33 6 -31 28 2 14 5 68 7 120 4 111
34 326 49 355 6 11 12 32 13 48 2 16 13 50 25 75 37 83 59 154 59 193 0 21 5
41 10 44 6 3 10 17 10 31 0 14 6 35 14 47 8 12 71 159 140 327 70 168 132 312
139 321 7 8 44 39 82 68 39 29 78 68 88 87 9 19 21 34 26 34 13 0 -5 91 -20
101 -8 5 -21 9 -30 9 -9 0 -24 9 -34 20 -25 27 -85 26 -158 -4z"/>
<path d="M21283 9954 c-34 -24 -185 -73 -247 -80 -44 -5 -59 -12 -72 -32 -26
-40 -87 -95 -128 -116 -21 -11 -42 -28 -47 -38 -5 -9 -16 -15 -24 -12 -16 6
-114 -64 -115 -82 0 -6 -11 -21 -25 -34 -14 -13 -25 -34 -25 -47 0 -13 -4 -23
-9 -23 -4 0 -18 -23 -30 -52 -19 -46 -20 -58 -11 -107 17 -87 31 -123 61 -161
15 -19 33 -55 40 -80 20 -71 80 -141 179 -211 l90 -63 36 -110 c20 -61 43
-124 51 -139 11 -22 12 -36 3 -65 -17 -55 -61 -142 -72 -142 -13 0 -88 -76
-88 -89 0 -14 -45 -61 -59 -61 -6 0 -28 -16 -50 -35 -21 -19 -48 -35 -61 -35
-12 0 -35 -9 -51 -21 -16 -11 -46 -25 -67 -31 -24 -7 -57 -31 -97 -72 -67 -68
-67 -67 -24 -164 21 -48 21 -48 80 6 17 15 69 36 142 56 126 36 143 45 220
114 29 26 98 83 155 126 56 43 102 85 102 92 0 8 10 14 24 14 14 0 30 10 39
23 8 13 38 45 65 73 71 70 137 201 145 289 6 59 4 71 -17 103 -13 20 -49 85
-80 144 -31 59 -66 113 -76 118 -14 7 -20 21 -20 43 0 47 -53 97 -102 97 -32
0 -37 3 -43 30 -4 17 -34 72 -68 123 -74 113 -85 168 -46 238 22 40 35 48 199
127 233 113 245 121 258 173 10 41 10 42 -34 85 -47 47 -66 52 -101 28z"/>
<path d="M42675 9949 c-16 -11 -55 -27 -85 -35 -30 -9 -59 -20 -65 -24 -5 -5
-39 -11 -75 -15 -63 -7 -66 -8 -95 -50 -16 -24 -40 -48 -52 -54 -13 -6 -23
-14 -23 -19 0 -5 -18 -17 -40 -27 -22 -10 -42 -26 -46 -37 -4 -13 -11 -17 -25
-13 -13 4 -34 -6 -69 -36 -27 -23 -50 -47 -50 -53 0 -6 -9 -17 -20 -24 -11 -7
-20 -23 -20 -36 0 -13 -5 -26 -11 -28 -6 -2 -22 -30 -34 -61 -18 -43 -22 -64
-15 -85 5 -15 14 -53 20 -84 7 -35 22 -71 41 -94 16 -20 35 -58 43 -85 21 -69
84 -142 183 -212 l86 -62 34 -100 c18 -55 40 -117 49 -137 15 -33 15 -44 4
-85 -15 -54 -57 -133 -71 -133 -17 0 -86 -77 -93 -104 -3 -14 -13 -26 -21 -26
-8 0 -15 -4 -15 -10 0 -5 -5 -10 -11 -10 -7 0 -31 -16 -55 -35 -23 -19 -51
-35 -62 -35 -11 0 -31 -9 -45 -20 -15 -12 -49 -28 -77 -36 -39 -11 -56 -23
-70 -47 -11 -18 -35 -43 -55 -56 -32 -22 -34 -25 -20 -44 8 -12 15 -32 15 -45
0 -13 7 -37 16 -53 17 -33 14 -34 79 21 20 16 69 35 143 55 87 23 122 37 156
65 25 19 96 76 158 125 62 50 127 105 145 123 17 17 37 32 43 32 7 0 44 34 83
77 76 81 169 238 161 270 -3 10 -1 36 4 58 7 32 5 45 -9 65 -9 14 -47 82 -84
153 -37 71 -73 127 -81 127 -10 0 -14 12 -14 39 0 32 -6 44 -36 71 -29 25 -44
31 -70 28 -31 -4 -35 -1 -45 32 -6 19 -37 76 -69 125 -73 113 -84 163 -49 231
23 45 29 48 226 144 127 62 207 107 217 122 8 13 18 40 21 61 6 30 4 37 -8 37
-9 0 -24 13 -33 29 -26 45 -61 51 -109 20z"/>
<path d="M5716 9880 c-16 -5 -59 -9 -95 -9 -36 0 -111 -3 -166 -6 -81 -5 -103
-10 -115 -25 -11 -13 -35 -20 -89 -25 -87 -9 -144 -38 -209 -110 -22 -25 -48
-45 -58 -45 -37 0 -185 -188 -237 -301 -21 -48 -33 -86 -30 -101 3 -15 -6 -46
-22 -78 -14 -28 -24 -58 -21 -66 7 -17 -13 -65 -34 -81 -11 -8 -15 -31 -15
-80 0 -60 -4 -73 -29 -106 -23 -30 -34 -37 -52 -33 -32 8 -36 -5 -20 -66 12
-45 12 -57 0 -80 -8 -15 -14 -36 -14 -46 0 -11 -7 -39 -16 -63 -9 -24 -16 -53
-16 -63 1 -10 -8 -36 -19 -58 -11 -21 -17 -43 -14 -48 3 -5 -3 -31 -14 -57
-53 -131 -54 -143 -26 -322 14 -90 25 -165 25 -167 0 -2 29 -4 64 -4 74 0 172
33 181 60 3 10 16 21 28 24 16 4 31 24 51 71 23 54 32 65 52 65 14 0 24 6 24
14 0 8 11 27 24 41 13 14 29 46 35 70 7 26 17 45 25 45 8 0 17 11 20 25 4 14
11 25 16 25 16 0 100 63 100 76 0 6 6 14 14 17 7 3 17 22 20 42 5 25 14 39 27
42 14 4 17 11 13 27 -6 26 25 70 66 91 21 11 30 24 35 55 4 22 10 38 14 35 5
-2 20 17 34 43 28 51 57 80 74 75 5 -2 20 23 33 56 17 46 30 64 52 76 28 13
33 13 59 -2 27 -16 29 -21 23 -63 -4 -33 0 -61 16 -105 25 -71 34 -129 32
-210 -1 -52 5 -75 55 -185 77 -173 195 -362 242 -388 45 -24 81 -16 99 21 10
21 20 27 46 27 43 0 80 29 100 80 9 22 22 40 29 40 15 0 37 41 37 67 0 18 37
53 55 53 7 0 23 14 36 30 13 17 50 45 81 61 37 20 60 41 68 60 7 15 32 45 57
65 25 20 48 44 52 53 19 44 68 110 82 111 9 0 20 7 23 16 4 10 14 14 25 11 33
-8 42 60 15 117 -13 26 -25 36 -52 41 -31 6 -39 2 -73 -31 -22 -21 -39 -44
-39 -50 0 -7 -46 -52 -102 -100 -57 -48 -105 -92 -108 -98 -11 -26 -106 -102
-157 -127 l-54 -26 -23 31 c-13 17 -49 101 -80 186 -60 168 -86 311 -86 475 0
44 -7 118 -15 165 -9 53 -15 149 -15 256 l0 171 46 18 c57 22 124 89 124 125
0 52 -42 75 -106 59 -5 -2 -27 3 -49 9 -46 14 -117 14 -159 2z m-409 -292 c7
-5 17 -7 23 -3 5 3 20 -1 32 -9 12 -9 38 -16 58 -16 58 0 64 -9 56 -87 -4 -37
-14 -78 -22 -90 -7 -12 -14 -31 -14 -42 0 -10 -13 -44 -29 -74 -25 -48 -27
-58 -15 -68 21 -18 10 -43 -65 -144 -37 -49 -93 -133 -125 -185 -32 -52 -73
-111 -91 -130 -33 -36 -207 -265 -288 -380 -25 -36 -55 -74 -66 -84 -19 -17
-20 -17 -30 21 -16 56 -14 163 2 163 15 0 16 3 21 77 2 29 8 58 14 65 5 7 12
40 14 73 3 33 14 83 26 110 11 28 28 75 37 105 9 30 22 69 29 85 16 34 48 112
70 168 8 20 19 37 25 37 5 0 18 27 27 60 9 34 25 66 34 73 10 7 23 33 29 57
29 111 43 139 78 151 18 6 33 17 33 25 0 39 19 52 72 52 29 0 58 -5 65 -10z"/>
<path d="M47626 9880 c-16 -5 -59 -9 -95 -9 -36 0 -111 -3 -166 -6 -81 -5
-103 -10 -115 -25 -11 -13 -35 -20 -90 -25 -84 -8 -143 -40 -215 -114 -21 -22
-45 -41 -53 -41 -18 0 -99 -86 -157 -167 -58 -80 -114 -203 -108 -236 3 -16
-5 -44 -22 -76 -15 -27 -25 -57 -22 -65 7 -19 -14 -76 -28 -76 -17 0 -32 -90
-21 -121 8 -22 4 -33 -25 -68 -26 -33 -38 -41 -56 -37 -31 8 -37 -7 -22 -64
13 -51 13 -53 -29 -190 -9 -30 -16 -60 -14 -67 1 -7 -7 -31 -18 -53 -11 -22
-18 -44 -16 -49 3 -4 -5 -37 -18 -72 -49 -130 -49 -132 -26 -284 32 -218 21
-195 95 -195 73 0 171 33 180 60 3 10 15 20 25 23 13 3 32 30 51 71 25 54 35
66 55 66 17 0 24 6 24 19 0 11 9 26 20 34 11 8 26 34 34 59 7 25 23 55 35 67
11 11 21 28 21 37 0 8 4 13 10 9 11 -7 96 53 92 66 -1 5 5 12 13 15 8 3 20 24
26 46 6 26 17 42 30 45 14 4 17 11 13 27 -6 26 25 70 66 91 21 11 29 24 34 55
3 22 11 40 16 40 6 0 22 22 38 50 15 27 33 50 40 50 6 0 12 4 12 10 0 5 6 7
14 4 9 -3 20 14 36 55 17 46 30 64 52 76 27 13 33 13 59 -2 25 -15 27 -20 22
-62 -4 -33 1 -63 16 -106 26 -71 35 -129 32 -210 -1 -53 5 -74 55 -185 31 -69
90 -180 131 -248 60 -97 83 -127 112 -141 45 -22 82 -14 99 22 11 22 20 27 49
27 38 0 85 40 99 83 4 12 20 34 36 50 16 16 28 37 26 47 -3 19 36 60 57 60 6
0 21 13 33 29 12 16 48 44 81 61 41 22 63 41 72 61 6 17 32 46 57 67 24 20 47
43 51 52 19 44 68 109 82 110 9 0 20 7 23 16 4 10 14 14 25 11 33 -8 42 60 15
117 -13 26 -25 36 -52 41 -31 6 -39 2 -73 -31 -22 -21 -39 -44 -39 -50 0 -7
-46 -52 -102 -100 -57 -47 -105 -92 -108 -98 -12 -28 -110 -106 -159 -127
l-54 -23 -22 27 c-11 15 -47 98 -78 185 -63 171 -87 304 -87 471 0 47 -7 124
-15 171 -9 53 -15 149 -15 256 l0 171 46 18 c53 20 124 89 124 121 0 53 -34
79 -86 65 -17 -4 -42 -2 -64 5 -40 15 -121 16 -164 4z m-410 -291 c3 -6 14 -7
23 -4 10 3 24 -1 31 -10 7 -9 29 -15 50 -15 69 0 72 -4 64 -84 -3 -39 -12 -81
-20 -93 -8 -12 -14 -31 -14 -42 0 -10 -13 -44 -29 -74 -25 -48 -27 -58 -15
-68 21 -18 10 -43 -66 -145 -37 -49 -93 -133 -125 -185 -32 -52 -72 -110 -90
-129 -40 -44 -203 -259 -278 -365 -30 -45 -65 -89 -76 -99 -19 -17 -20 -17
-30 21 -16 56 -14 163 2 163 15 0 17 7 20 79 1 28 8 56 15 63 6 6 12 36 12 65
0 34 7 68 20 93 11 22 25 63 31 92 7 29 22 76 35 105 13 28 24 56 24 62 0 5
11 31 25 57 14 26 25 55 25 64 0 9 9 25 19 34 11 10 28 43 37 73 10 30 26 60
36 66 10 7 18 18 18 25 0 7 12 48 26 92 24 72 30 81 60 92 19 7 34 18 34 26 0
37 19 49 75 50 30 0 58 -4 61 -9z"/>
<path d="M37235 9830 c-11 -5 -42 -9 -68 -9 -26 -1 -64 -8 -84 -16 -19 -8 -54
-15 -77 -15 -90 0 -246 -80 -329 -169 -26 -27 -63 -62 -84 -78 -54 -41 -92
-85 -93 -108 0 -28 -30 -101 -67 -166 -18 -31 -33 -62 -33 -69 0 -6 -11 -44
-24 -83 -35 -104 -81 -343 -79 -406 2 -35 -3 -63 -12 -77 -8 -13 -14 -45 -14
-76 0 -29 0 -120 0 -203 0 -122 2 -151 15 -158 8 -4 12 -13 9 -18 -4 -5 -3
-33 0 -63 6 -48 14 -62 91 -151 46 -54 84 -103 84 -107 0 -5 20 -17 44 -27 42
-19 45 -19 111 0 38 10 73 23 79 29 5 5 27 10 48 10 21 0 38 5 38 11 0 5 4 8
9 5 5 -3 14 1 21 9 7 8 24 15 39 15 14 0 35 7 45 15 11 8 42 21 71 30 28 8 68
25 87 39 20 13 47 27 59 31 13 4 30 12 36 17 7 6 20 8 28 4 9 -3 63 18 125 49
64 32 123 55 141 55 35 0 109 29 109 42 0 5 20 21 45 37 54 34 101 91 110 132
8 38 -16 69 -54 69 -39 0 -161 -31 -161 -41 0 -5 -11 -9 -24 -9 -13 0 -43 -9
-67 -19 -24 -11 -47 -17 -52 -14 -5 3 -12 1 -16 -4 -13 -21 -129 -65 -178 -68
-28 -2 -60 -8 -72 -14 -19 -10 -108 -31 -152 -35 -9 -1 -28 -10 -42 -19 -60
-39 -112 -15 -160 74 -27 49 -37 79 -37 112 0 27 -6 49 -15 57 -8 7 -15 29
-15 49 0 20 -7 77 -14 127 -25 160 2 360 70 542 13 34 24 68 24 76 0 7 15 32
33 56 17 23 44 63 58 89 21 36 33 47 60 53 41 8 59 -5 59 -43 0 -42 26 -52 69
-24 22 14 60 26 99 30 l62 7 0 33 c0 33 13 45 49 45 10 0 23 12 30 26 7 16 17
24 26 21 26 -11 91 36 128 91 46 69 48 100 7 115 -16 6 -30 14 -30 18 0 4 -13
12 -30 19 -17 7 -30 20 -30 30 0 27 -62 39 -105 20z"/>
<path d="M17050 9763 c0 -7 -8 -13 -18 -13 -19 0 -62 -34 -62 -50 0 -4 -14
-11 -31 -15 -36 -8 -97 -59 -110 -92 -5 -14 -13 -21 -19 -18 -5 3 -10 0 -10
-8 0 -18 -33 -47 -91 -80 -25 -14 -58 -42 -74 -62 -25 -33 -31 -36 -66 -33
-26 2 -39 -1 -39 -8 0 -7 6 -14 13 -17 6 -2 -1 -8 -18 -12 -16 -5 -36 -17 -43
-27 -7 -10 -21 -18 -30 -18 -30 0 -62 -30 -62 -56 0 -14 7 -38 15 -53 l14 -29
71 26 c62 22 74 30 90 63 34 66 84 84 159 58 40 -14 50 -38 44 -110 -4 -36 1
-77 11 -113 13 -44 14 -61 5 -72 -6 -8 -8 -25 -5 -39 5 -19 0 -35 -18 -58 -34
-45 -48 -106 -52 -227 -2 -75 -8 -122 -23 -164 -12 -33 -21 -69 -21 -80 0 -12
-23 -86 -51 -166 -28 -80 -59 -172 -69 -206 -10 -33 -25 -74 -33 -90 l-15 -29
79 1 c44 1 81 3 82 5 2 2 11 16 20 31 10 15 30 31 45 34 15 4 58 37 97 73 64
60 72 72 93 141 13 41 30 82 37 90 7 8 47 71 90 139 43 68 102 153 132 190 29
36 56 77 60 90 3 14 30 50 59 80 29 31 63 70 75 86 13 17 61 73 108 125 68 76
96 100 145 123 33 15 79 43 102 62 46 38 77 43 112 19 25 -18 29 -46 7 -64 -8
-7 -15 -23 -15 -36 0 -12 -5 -26 -10 -29 -6 -4 1 -21 17 -41 26 -34 26 -36 10
-70 -11 -21 -17 -60 -17 -100 0 -58 -4 -71 -30 -104 -26 -33 -28 -39 -16 -56
12 -16 11 -24 -5 -56 -13 -24 -19 -58 -19 -98 0 -69 -17 -149 -36 -168 -21
-20 -27 -78 -15 -127 6 -24 11 -73 11 -109 0 -55 3 -68 20 -78 13 -9 24 -32
31 -70 11 -56 12 -57 48 -60 31 -3 36 -7 39 -30 2 -16 6 -28 10 -28 3 0 27 20
52 45 62 61 267 203 314 217 28 9 49 26 78 64 35 46 45 54 84 60 33 5 49 14
65 35 14 20 29 29 49 29 15 0 37 8 48 18 24 19 162 209 162 221 0 13 -33 38
-58 44 -26 6 -66 -10 -229 -89 -83 -41 -123 -68 -155 -102 -61 -67 -121 -91
-133 -53 -16 53 -33 197 -28 251 4 40 2 69 -7 85 -11 20 -10 28 10 60 l22 36
-21 15 c-19 14 -20 18 -7 35 10 15 11 29 4 60 -7 27 -7 43 0 52 6 7 20 72 32
146 12 73 30 154 41 178 10 25 19 62 19 83 0 20 7 57 16 81 18 51 12 198 -9
211 -23 14 -54 8 -93 -19 -21 -14 -74 -39 -117 -54 -79 -28 -170 -89 -208
-138 -21 -28 -101 -90 -191 -149 -32 -20 -58 -43 -58 -49 0 -7 -4 -13 -8 -13
-18 0 -140 -110 -151 -136 -8 -20 -27 -36 -59 -51 -61 -28 -84 -51 -137 -133
-24 -37 -60 -80 -80 -96 -20 -15 -47 -49 -60 -75 -14 -26 -33 -50 -42 -53 -10
-3 -38 -31 -62 -62 -24 -30 -47 -52 -52 -47 -4 4 5 71 22 148 16 77 29 159 27
181 -1 24 5 51 14 65 8 13 20 51 26 84 7 43 30 96 81 187 65 116 71 132 75
194 3 58 8 72 30 91 14 12 26 26 26 31 0 5 7 15 15 22 10 9 15 32 15 75 l0 62
-95 -1 c-70 0 -95 -4 -95 -13z"/>
<path d="M27315 9765 c-22 -8 -60 -14 -84 -14 -26 -1 -58 -10 -78 -23 -20 -11
-76 -29 -125 -39 -100 -21 -205 -71 -220 -105 -6 -12 -28 -30 -50 -40 -45 -20
-91 -80 -107 -140 -6 -22 -24 -57 -40 -79 -15 -22 -32 -51 -36 -65 -4 -14 -20
-41 -36 -60 -15 -19 -37 -60 -49 -90 -12 -30 -27 -61 -33 -69 -9 -11 -9 -15 1
-18 16 -6 15 -23 -2 -23 -23 0 -37 -50 -26 -95 5 -25 5 -44 -1 -51 -5 -6 -12
-67 -15 -135 -6 -102 -4 -131 10 -162 15 -38 15 -40 -9 -71 -14 -18 -25 -42
-25 -54 0 -12 20 -54 44 -94 48 -80 47 -69 21 -241 l-7 -48 77 -74 c43 -41 82
-75 88 -75 5 0 50 33 101 74 50 40 102 77 116 81 44 13 195 132 243 192 26 32
69 72 97 88 42 24 52 36 61 70 6 22 12 47 15 55 2 8 23 23 47 33 67 27 101 64
131 142 18 49 44 90 86 138 33 38 60 74 60 80 0 7 12 34 26 60 22 42 24 56 18
103 l-6 55 64 67 c88 91 98 108 120 215 20 93 24 205 10 301 -9 63 -41 91 -95
81 -37 -7 -80 -39 -89 -66 -9 -27 -56 6 -69 50 -9 30 -19 43 -42 51 -40 14
-143 11 -192 -5z m51 -386 l2 -67 -42 -16 -41 -17 25 -22 c14 -12 39 -32 55
-44 28 -20 29 -23 17 -55 -6 -19 -12 -51 -12 -72 0 -23 -5 -39 -15 -42 -9 -4
-30 -54 -51 -123 -42 -139 -44 -144 -95 -201 -22 -25 -53 -71 -68 -102 -28
-55 -55 -96 -85 -128 -7 -8 -17 -25 -20 -37 -4 -13 -13 -23 -21 -23 -7 0 -24
-13 -37 -29 -27 -33 -74 -67 -105 -76 -36 -10 -63 26 -63 85 0 27 -6 64 -14
82 -36 87 -45 128 -35 158 9 23 7 35 -7 58 -16 29 -16 31 5 61 l23 32 -17 87
c-27 133 -25 196 7 264 41 88 105 149 229 218 95 53 114 60 144 54 20 -3 41
-2 48 4 14 12 63 19 127 18 l45 -1 1 -66z"/>
<path d="M35506 9768 c-10 -6 -46 -21 -80 -35 -50 -19 -66 -21 -87 -12 -22 9
-35 6 -75 -14 -27 -14 -66 -39 -88 -56 -21 -17 -44 -31 -51 -31 -6 0 -22 -11
-35 -25 -13 -14 -30 -25 -37 -25 -23 0 -125 -74 -170 -123 -46 -50 -67 -86
-77 -133 -9 -42 5 -51 96 -56 64 -4 82 -2 105 13 15 11 38 19 50 19 12 0 35
12 52 26 l31 26 0 -96 c0 -83 2 -97 19 -105 15 -9 18 -21 16 -89 -2 -70 -5
-84 -31 -121 -23 -32 -34 -40 -51 -36 -50 12 -55 0 -48 -104 5 -73 13 -106 30
-136 20 -35 22 -47 14 -93 -6 -38 -16 -61 -34 -78 -32 -30 -51 -74 -70 -165
-8 -39 -29 -102 -46 -141 -45 -103 -48 -133 -15 -167 26 -27 30 -28 99 -23 62
4 78 10 116 39 25 18 55 36 68 39 18 5 35 29 69 103 45 94 46 98 45 187 -2 88
0 94 33 149 33 56 34 59 41 203 6 134 9 152 35 207 16 33 69 110 118 170 48
61 111 144 139 185 l50 75 69 18 c38 10 96 29 128 42 52 21 62 22 90 11 29
-12 36 -10 98 21 38 18 74 42 80 54 7 11 34 33 59 49 35 21 48 36 53 60 8 45
8 50 -7 50 -7 0 -31 9 -52 21 -52 27 -137 20 -215 -17 -30 -15 -86 -42 -125
-60 -38 -19 -74 -34 -79 -34 -13 0 -192 -129 -251 -182 -72 -63 -93 -74 -111
-56 -18 18 1 85 27 93 21 7 29 43 14 68 -7 12 -6 23 3 37 6 11 12 42 12 68 0
33 8 64 24 95 l25 46 -20 25 c-23 29 -26 30 -53 14z"/>
<path d="M45522 9765 c-42 -30 -133 -54 -158 -43 -29 13 -69 -2 -132 -50 -25
-19 -60 -41 -78 -48 -18 -8 -38 -23 -44 -34 -6 -11 -19 -20 -30 -20 -26 0
-143 -83 -180 -128 -42 -51 -72 -116 -68 -149 3 -28 4 -28 88 -34 74 -6 89 -4
112 12 14 11 36 19 48 19 12 0 33 9 47 20 14 11 30 20 34 20 5 0 9 -40 9 -89
0 -79 2 -92 20 -104 18 -12 19 -20 12 -53 -5 -22 -7 -56 -4 -76 6 -52 -43
-113 -91 -113 l-32 0 0 -101 c1 -83 5 -107 22 -135 13 -24 19 -49 17 -75 -1
-21 -3 -44 -3 -51 -1 -7 -15 -28 -31 -47 -38 -42 -55 -84 -70 -164 -6 -35 -26
-98 -45 -140 -50 -116 -52 -138 -20 -172 25 -26 30 -27 98 -22 60 4 79 10 117
36 25 18 58 37 73 44 22 9 38 34 74 110 44 96 45 98 40 182 -4 84 -4 86 32
145 36 60 36 60 42 205 6 178 19 210 141 361 80 99 183 240 190 260 2 5 43 20
92 35 49 14 108 34 132 45 38 19 45 19 71 6 26 -14 33 -13 93 14 36 17 75 43
88 59 12 16 40 39 62 51 37 21 50 42 50 85 0 15 -13 26 -55 43 -67 28 -138 23
-212 -15 -26 -13 -63 -29 -81 -35 -19 -6 -52 -22 -75 -35 -23 -13 -48 -24 -55
-24 -7 0 -54 -31 -106 -70 -51 -38 -97 -70 -102 -70 -6 0 -28 -18 -49 -41 -22
-22 -53 -48 -69 -56 -27 -14 -31 -14 -43 3 -9 12 -10 20 -3 22 5 2 10 13 10
24 0 11 12 32 26 45 20 18 24 30 19 46 -9 28 -8 37 5 117 6 35 20 83 31 107
22 45 16 74 -17 87 -20 8 -16 9 -42 -9z"/>
<path d="M19601 9741 c-29 -10 -61 -27 -70 -38 -9 -11 -30 -25 -47 -32 -18 -7
-44 -26 -60 -42 -17 -18 -34 -27 -45 -24 -10 4 -27 -6 -45 -25 -16 -16 -34
-30 -41 -30 -15 0 -149 -151 -158 -179 -4 -15 -15 -21 -34 -21 -26 0 -28 -3
-38 -62 -5 -35 -13 -71 -18 -80 -5 -14 -2 -18 12 -18 11 0 22 -3 26 -6 10 -10
-12 -57 -34 -72 -11 -8 -19 -24 -18 -35 4 -62 -1 -78 -29 -88 -31 -11 -83 -95
-101 -166 -7 -24 -16 -43 -21 -43 -6 0 -10 -25 -10 -55 0 -34 -6 -65 -16 -80
-10 -16 -13 -32 -8 -47 4 -13 7 -33 5 -46 -1 -13 4 -25 13 -28 27 -10 18 -34
-19 -50 -40 -17 -42 -28 -20 -115 12 -45 13 -69 6 -97 -7 -26 -7 -50 0 -75 6
-21 8 -51 4 -66 -3 -15 -1 -41 6 -57 6 -16 11 -56 11 -89 -1 -56 2 -63 36 -97
40 -42 56 -47 71 -21 8 14 13 15 35 5 23 -10 28 -9 42 13 12 18 28 26 65 31
27 4 52 11 55 15 3 5 17 9 32 9 15 0 45 9 67 20 22 11 48 20 59 20 10 0 24 7
31 16 6 9 24 17 38 17 15 0 30 3 33 8 7 12 55 11 73 0 15 -9 103 21 132 46 9
8 40 16 70 20 33 3 63 13 76 25 12 11 27 17 33 13 13 -8 67 11 92 33 10 8 28
12 42 10 20 -4 27 1 36 21 9 23 15 26 49 23 32 -3 39 0 44 17 3 13 13 21 27
21 12 0 38 14 57 30 25 23 44 30 73 30 22 0 40 4 40 9 0 6 14 18 30 28 22 13
30 25 30 46 0 15 9 45 20 67 22 43 24 39 -50 77 -67 34 -92 31 -124 -17 -14
-22 -37 -42 -51 -46 -14 -3 -25 -10 -25 -16 0 -11 -98 -58 -121 -58 -9 0 -24
-9 -34 -20 -10 -11 -28 -20 -41 -20 -13 0 -26 -5 -29 -10 -4 -6 -10 -8 -15 -5
-5 3 -23 -1 -39 -10 -17 -8 -38 -15 -48 -15 -10 0 -29 -9 -43 -20 -21 -16 -35
-18 -93 -13 -55 5 -70 3 -80 -10 -15 -19 -132 -38 -146 -24 -7 7 -29 4 -66 -8
-65 -23 -88 -15 -93 31 -2 16 -9 34 -15 39 -20 17 -19 44 3 91 29 58 26 119
-10 216 -20 54 -5 98 43 121 20 10 37 23 37 28 0 5 7 9 15 9 8 0 15 -5 15 -11
0 -7 12 -8 33 -4 56 12 87 29 87 49 0 17 6 18 76 13 69 -5 84 -3 157 26 74 29
82 35 99 73 20 47 69 94 128 124 71 36 112 69 130 105 l18 36 -24 11 c-30 14
-33 59 -6 86 14 14 20 40 24 100 6 79 5 81 -23 108 -31 30 -38 68 -14 78 18 6
19 26 4 76 -12 41 -47 60 -110 60 -81 0 -139 13 -165 36 -30 28 -66 29 -143 5z
m0 -302 c15 5 46 7 68 4 33 -5 41 -10 41 -27 0 -11 7 -34 15 -50 9 -17 15 -55
15 -94 0 -64 0 -65 -46 -106 -25 -22 -61 -62 -79 -87 -32 -44 -35 -46 -96 -53
-35 -4 -75 -16 -89 -26 -22 -16 -33 -17 -69 -9 -23 5 -53 17 -67 26 -22 14
-25 22 -22 67 2 41 6 50 19 48 12 -2 24 15 40 55 13 32 23 60 22 63 -1 3 -5
13 -8 23 -6 13 -2 17 17 17 28 0 71 42 84 82 13 40 72 78 103 66 15 -5 35 -5
52 1z"/>
<path d="M22431 9741 c-29 -10 -61 -27 -70 -38 -9 -11 -30 -25 -47 -32 -18 -7
-44 -26 -60 -42 -17 -18 -34 -27 -45 -24 -10 4 -27 -6 -45 -25 -16 -16 -34
-30 -41 -30 -16 0 -131 -128 -151 -167 -12 -25 -22 -33 -43 -33 -28 0 -28 1
-43 -100 -2 -14 -7 -33 -11 -42 -5 -14 -2 -18 14 -18 12 0 21 -6 21 -12 0 -31
-14 -58 -31 -63 -16 -5 -19 -16 -19 -61 0 -51 -2 -56 -28 -65 -30 -10 -81 -92
-103 -166 -7 -24 -16 -43 -21 -43 -4 0 -8 -25 -8 -55 0 -33 -6 -65 -15 -79
-16 -24 -11 -111 6 -122 20 -12 8 -42 -21 -53 -35 -12 -38 -35 -15 -121 11
-42 12 -63 4 -87 -6 -18 -7 -43 -3 -55 4 -13 9 -48 11 -78 10 -200 13 -213 51
-252 40 -42 56 -47 71 -21 8 14 13 15 35 5 23 -10 28 -9 42 13 12 18 28 26 65
31 27 4 52 11 55 15 3 5 17 9 32 9 15 0 44 9 65 20 20 11 46 20 57 20 11 0 29
9 41 21 12 12 27 18 39 14 10 -3 21 -1 25 5 8 12 55 13 74 1 15 -9 103 21 132
46 9 8 40 16 70 20 33 3 63 13 76 25 12 11 27 17 33 13 13 -8 67 11 92 33 10
8 28 12 42 10 20 -4 27 1 36 21 9 23 16 26 44 23 27 -3 37 1 45 17 7 12 21 21
33 21 11 0 36 14 55 30 21 19 45 30 63 30 45 0 110 49 108 80 -1 14 6 39 15
57 24 45 21 62 -10 73 -16 6 -40 17 -55 25 -46 26 -75 19 -104 -24 -14 -22
-39 -44 -55 -50 -16 -5 -29 -14 -29 -19 0 -11 -90 -52 -113 -52 -8 0 -22 -9
-32 -20 -10 -11 -28 -20 -41 -20 -13 0 -26 -5 -29 -10 -4 -6 -10 -8 -15 -5 -5
3 -23 -1 -39 -10 -17 -8 -38 -15 -48 -15 -10 0 -29 -9 -43 -20 -21 -17 -35
-18 -93 -13 -54 5 -71 3 -78 -8 -11 -18 -135 -39 -148 -26 -7 7 -30 4 -67 -8
-66 -21 -87 -14 -92 31 -2 16 -10 33 -18 37 -20 11 -17 46 7 97 28 58 27 85
-8 197 -14 43 -15 58 -5 91 10 33 18 42 43 47 17 4 33 13 36 21 6 16 33 19 33
3 0 -7 12 -8 33 -4 56 12 87 29 87 49 0 17 6 18 76 13 69 -5 84 -3 157 26 70
27 82 35 94 67 20 48 69 97 125 126 79 40 119 72 138 109 l18 36 -24 11 c-30
14 -33 59 -5 87 16 16 20 36 22 101 2 79 1 82 -30 113 -37 39 -38 51 -10 71
20 14 21 18 9 65 -9 38 -17 51 -30 51 -11 0 -21 4 -24 9 -3 4 -49 11 -103 15
-88 5 -100 9 -120 31 -26 30 -62 31 -142 6z m0 -302 c15 5 46 7 68 4 37 -5 41
-8 41 -35 0 -16 7 -40 16 -53 12 -19 15 -42 12 -91 -4 -63 -6 -67 -45 -100
-23 -19 -58 -56 -77 -83 -34 -46 -38 -49 -97 -55 -33 -4 -74 -15 -90 -25 -25
-15 -38 -17 -72 -9 -74 16 -88 32 -85 91 2 41 6 51 19 49 10 -1 23 17 39 55
14 32 24 60 23 63 -1 3 -5 13 -8 23 -6 13 -2 17 17 17 29 0 61 32 81 78 7 17
28 43 46 56 27 20 38 23 59 15 16 -6 35 -6 53 0z"/>
<path d="M41006 9740 c-33 -10 -64 -26 -68 -34 -5 -9 -28 -25 -51 -35 -23 -11
-53 -31 -66 -45 -15 -15 -31 -24 -41 -21 -10 3 -28 -7 -45 -25 -16 -16 -34
-30 -40 -30 -15 0 -128 -127 -149 -168 -13 -25 -23 -32 -45 -32 -27 0 -29 -3
-35 -57 -4 -31 -9 -67 -12 -80 -5 -19 -2 -23 16 -23 19 0 21 -4 15 -27 -3 -15
-17 -37 -31 -50 -18 -17 -23 -29 -18 -47 9 -36 -3 -64 -34 -78 -29 -14 -62
-66 -88 -138 -9 -25 -23 -60 -31 -79 -8 -18 -13 -50 -11 -70 3 -23 0 -40 -9
-46 -7 -5 -13 -21 -13 -35 1 -65 6 -94 18 -97 24 -9 13 -41 -17 -48 -35 -8
-48 -46 -30 -91 6 -16 12 -91 14 -169 1 -77 7 -149 12 -160 6 -11 10 -47 9
-80 -3 -56 -1 -62 33 -97 38 -41 52 -46 71 -23 8 9 21 13 37 9 17 -5 31 0 48
16 12 12 42 24 64 27 23 3 44 10 47 14 3 5 17 9 32 9 15 0 47 9 71 20 24 11
51 20 62 20 10 0 22 7 26 15 5 8 22 17 38 20 17 3 45 8 63 11 19 4 38 2 46 -6
12 -9 30 -4 88 25 40 20 93 38 118 42 25 3 56 13 70 21 14 9 38 17 54 18 15 1
41 11 57 23 15 11 42 21 58 21 21 0 32 6 36 20 5 15 15 20 45 20 30 0 40 5 45
20 4 13 15 20 31 20 13 0 38 13 56 30 23 23 40 30 69 30 22 0 39 4 39 10 0 5
14 16 30 25 24 12 30 22 30 47 0 17 9 46 21 64 11 19 18 38 15 43 -10 15 -112
61 -137 61 -16 -1 -33 -13 -51 -40 -15 -22 -39 -42 -53 -46 -14 -3 -25 -12
-25 -19 0 -7 -21 -21 -47 -31 -59 -21 -103 -40 -123 -53 -21 -13 -51 -24 -77
-27 -12 -2 -31 -8 -42 -13 -11 -6 -28 -11 -39 -11 -10 0 -27 -9 -37 -20 -17
-19 -26 -20 -87 -14 -58 6 -72 4 -89 -12 -15 -14 -38 -18 -102 -20 -45 -1
-100 -7 -123 -14 -54 -16 -84 -2 -84 41 0 16 -6 32 -13 35 -19 7 -14 50 13
108 19 42 21 55 11 81 -6 17 -11 41 -11 53 0 12 -7 39 -16 61 -22 56 -5 107
42 127 19 8 34 19 34 24 0 6 7 10 15 10 8 0 15 -5 15 -11 0 -7 12 -8 33 -4 56
12 87 29 87 49 0 17 6 18 73 13 64 -5 81 -3 159 26 80 29 89 35 99 66 15 45
64 89 170 153 69 42 87 58 96 84 10 35 2 54 -25 54 -20 0 -9 70 13 86 11 8 17
36 21 90 6 79 6 79 -25 108 -36 34 -38 52 -12 80 17 19 18 25 5 66 -11 38 -19
48 -47 58 -18 7 -49 12 -68 12 -81 0 -137 13 -163 36 -30 29 -60 30 -140 4z
m-51 -302 c19 -8 31 -8 50 0 15 7 44 9 70 5 42 -5 45 -7 45 -37 0 -17 7 -41
15 -53 11 -16 13 -37 8 -88 -6 -64 -8 -68 -50 -103 -24 -20 -57 -58 -74 -83
-28 -45 -31 -46 -91 -53 -34 -3 -73 -14 -87 -23 -30 -20 -66 -19 -121 3 -32
13 -41 22 -46 50 -8 45 3 87 21 80 19 -7 67 97 59 129 -5 18 -1 23 24 28 29 6
72 57 72 88 1 10 58 61 77 68 1 1 14 -4 28 -11z"/>
<path d="M15745 9678 c-35 -20 -110 -89 -117 -109 -5 -13 -17 -19 -37 -19 -19
0 -47 -14 -80 -40 -28 -22 -55 -40 -60 -40 -6 0 -15 -9 -21 -20 -8 -16 -21
-20 -59 -20 -54 0 -78 -19 -96 -73 -7 -21 -24 -39 -50 -54 -63 -35 -186 -153
-207 -200 -17 -39 -17 -45 -3 -80 36 -85 77 -96 120 -32 16 22 41 49 57 60 15
11 28 26 28 34 0 7 6 15 14 18 8 3 24 24 37 46 22 40 24 41 79 41 46 0 60 -4
77 -22 22 -25 26 -85 6 -109 -6 -8 -14 -30 -18 -49 -4 -19 -16 -57 -26 -83
-15 -36 -19 -74 -19 -158 0 -78 -4 -118 -15 -139 -11 -21 -12 -31 -4 -36 13
-8 5 -117 -11 -160 -6 -14 -13 -44 -16 -67 -9 -66 -10 -388 -1 -394 4 -2 21
-31 37 -64 18 -34 37 -59 46 -59 27 0 51 18 64 49 6 16 18 32 26 35 8 3 14 12
14 20 0 8 19 19 44 27 25 7 42 17 40 21 -3 4 2 8 11 8 9 0 39 17 68 38 72 51
89 60 132 68 20 3 39 13 42 20 3 8 10 14 15 14 5 0 23 9 38 20 16 11 43 23 62
26 42 8 78 30 78 49 0 8 5 15 10 15 6 0 10 7 10 16 0 8 3 13 8 10 4 -2 25 8
47 22 58 39 129 180 120 237 -3 21 -7 41 -9 42 -2 2 -25 6 -52 9 l-49 6 -59
-66 c-32 -36 -67 -66 -77 -66 -10 0 -34 -16 -53 -35 -53 -53 -184 -135 -216
-135 -26 0 -46 22 -36 39 3 4 10 65 16 136 6 72 18 152 27 178 8 27 17 76 18
110 2 34 7 80 12 102 5 22 10 112 12 200 3 134 6 164 21 185 25 36 62 168 61
217 -1 24 8 64 20 93 27 62 20 92 -25 114 -40 19 -73 20 -101 4z"/>
<path d="M18679 5701 c-47 -37 -53 -67 -34 -176 17 -103 16 -144 -10 -338 -13
-92 -43 -246 -49 -254 -4 -5 -224 -41 -400 -67 -153 -23 -216 -42 -216 -64 0
-21 64 -65 155 -108 117 -56 147 -58 295 -26 52 11 96 19 98 17 2 -2 -19 -84
-48 -182 -92 -315 -88 -293 -65 -309 34 -25 52 -15 130 69 82 87 192 246 268
388 l47 86 72 11 c40 6 102 14 138 17 36 3 85 8 110 11 25 3 160 9 300 14 278
9 347 21 388 66 30 34 28 60 -9 94 -41 37 -195 112 -287 140 l-74 22 -141 -30
c-256 -56 -357 -75 -363 -70 -8 9 102 262 142 323 58 91 52 125 -34 207 -92
88 -241 165 -336 175 -42 4 -56 1 -77 -16z"/>
<path d="M36510 5520 c-15 -3 -33 -20 -44 -42 -18 -33 -19 -40 -6 -106 31
-164 -12 -319 -184 -674 l-66 -137 -28 10 c-53 21 -162 49 -191 49 -34 0 -48
-15 -54 -55 -4 -33 -2 -43 37 -185 28 -102 51 -263 61 -425 3 -55 8 -120 10
-145 10 -104 12 -504 3 -618 l-10 -124 40 -81 c51 -104 82 -134 120 -121 18 6
34 24 48 54 l22 44 91 -3 c50 -1 140 2 199 8 59 6 171 18 249 26 78 8 149 15
157 15 8 0 31 -25 51 -55 41 -62 78 -95 106 -95 53 0 145 143 169 262 13 67
14 112 6 613 -7 437 0 540 44 665 16 47 30 95 30 107 0 42 -57 90 -173 147
-62 30 -135 62 -164 72 -51 18 -53 18 -125 -4 -105 -32 -455 -122 -474 -122
-12 0 -1 17 33 53 74 78 188 235 277 382 44 72 97 150 118 174 57 66 53 91
-26 166 -96 93 -253 163 -326 145z m367 -1022 c17 -8 32 -26 39 -48 16 -49 32
-189 40 -354 l6 -139 -28 7 c-16 3 -63 9 -105 12 -71 6 -85 4 -200 -34 -172
-57 -330 -104 -334 -100 -1 2 -4 131 -6 288 l-4 285 51 6 c28 4 98 20 155 37
57 17 129 35 159 41 30 6 64 13 75 15 33 8 122 -2 152 -16z m92 -881 c-1 -173
-10 -323 -24 -384 -5 -19 -9 -21 -31 -13 -43 17 -137 11 -316 -19 -95 -16
-201 -32 -235 -35 l-63 -7 -2 183 c-1 101 -3 218 -4 261 l-1 77 39 0 c130 0
534 79 588 114 19 13 38 22 42 19 4 -2 7 -90 7 -196z"/>
<path d="M16781 5469 c-46 -10 -61 -28 -63 -77 -1 -33 12 -68 65 -174 36 -73
89 -199 116 -280 49 -146 50 -148 28 -153 -12 -2 -89 -14 -172 -26 -162 -24
-359 -29 -531 -15 l-102 9 -17 -26 c-15 -24 -15 -28 0 -60 54 -114 287 -297
379 -297 15 0 67 17 115 39 101 45 408 147 417 138 4 -3 31 -90 60 -192 58
-201 72 -235 111 -271 56 -52 121 -12 143 88 10 46 8 80 -18 253 -16 110 -27
202 -26 204 2 2 95 30 207 61 112 32 220 65 240 75 57 27 62 80 10 104 -54 25
-117 23 -302 -8 -101 -17 -185 -30 -187 -28 -12 11 -44 289 -44 377 0 131 -14
158 -105 199 -98 44 -258 74 -324 60z"/>
<path d="M44070 5390 c-241 -63 -395 -86 -875 -135 -27 -3 -90 -9 -140 -14
-49 -5 -119 -12 -155 -16 -36 -3 -108 -10 -160 -15 -108 -11 -403 -38 -500
-46 -36 -2 -91 -7 -122 -9 -32 -3 -84 -7 -115 -10 -66 -6 -228 -18 -555 -41
-227 -16 -227 -16 -253 4 -63 50 -249 88 -328 68 -67 -16 -74 -75 -22 -199 62
-152 94 -303 115 -552 9 -111 6 -1529 -4 -1665 -2 -30 -7 -149 -10 -265 -6
-188 -17 -386 -31 -545 -2 -30 -7 -89 -10 -130 -10 -132 -35 -361 -56 -502
-20 -140 -27 -182 -53 -303 -22 -101 -21 -274 3 -367 21 -82 75 -197 124 -266
56 -78 126 -103 167 -60 24 26 55 121 65 198 l7 55 206 0 c179 0 374 7 517 20
22 2 99 6 170 10 72 3 153 8 180 10 28 2 104 7 170 10 66 3 147 8 180 10 33 3
103 7 155 10 52 3 169 9 260 15 91 5 219 12 285 16 66 3 122 8 125 9 11 6 404
19 584 20 l189 0 65 -105 c36 -58 97 -166 135 -240 80 -154 89 -167 131 -179
115 -30 281 159 349 398 20 72 22 97 21 441 0 361 -11 958 -18 969 -2 3 -7
105 -11 226 -4 121 -9 240 -11 265 -2 25 -8 393 -15 819 -13 814 -6 1166 26
1390 18 127 29 168 66 253 36 81 37 122 4 169 -47 70 -225 193 -385 267 -166
77 -216 78 -470 12z m162 -317 c53 -24 69 -45 96 -128 44 -131 78 -476 97
-970 4 -82 8 -163 10 -180 19 -143 27 -1802 12 -2345 -10 -367 -29 -558 -58
-576 -6 -3 -24 5 -42 19 -18 13 -75 46 -127 72 l-95 48 -150 -3 c-82 -1 -163
-3 -180 -5 -16 -1 -84 -6 -150 -10 -66 -4 -127 -8 -135 -10 -8 -1 -60 -6 -115
-9 -55 -4 -111 -9 -125 -11 -14 -3 -126 -14 -250 -25 -289 -26 -321 -29 -405
-35 -38 -3 -95 -8 -125 -10 -109 -10 -488 -34 -630 -41 -80 -3 -161 -8 -180
-9 -19 -2 -123 -6 -230 -10 -107 -3 -210 -8 -229 -11 l-33 -5 6 108 c18 313
25 461 31 673 3 102 7 241 10 310 3 69 7 226 10 350 3 124 7 297 10 385 2 88
7 311 10 495 3 184 7 430 10 545 3 116 8 416 11 667 l7 457 76 6 c42 3 186 24
321 46 135 22 272 44 305 49 206 32 1103 138 1361 159 66 6 192 14 280 17 87
4 161 8 163 11 3 2 91 2 195 0 170 -2 196 -5 238 -24z"/>
<path d="M42426 4938 c-39 -35 -43 -75 -11 -122 42 -62 65 -132 71 -216 l6
-78 -39 -6 c-88 -14 -360 -46 -518 -61 -370 -34 -375 -35 -375 -75 0 -25 71
-86 117 -100 60 -19 283 -24 463 -10 91 7 172 14 181 15 9 2 53 7 98 11 l81 7
2 -64 c1 -35 2 -95 2 -134 l1 -69 -120 -17 c-140 -19 -211 -26 -349 -35 -81
-5 -109 -3 -140 10 -55 23 -158 22 -179 -2 -27 -29 -20 -52 28 -94 92 -81 112
-143 180 -553 34 -205 53 -294 71 -331 50 -106 105 -133 143 -70 12 18 21 42
21 53 0 18 6 19 78 17 42 -1 128 4 191 12 63 8 117 12 120 8 7 -7 18 -254 11
-254 -3 0 -88 -13 -190 -29 -241 -38 -387 -47 -522 -31 -58 7 -118 10 -132 6
-33 -8 -43 -44 -21 -85 25 -49 155 -174 226 -217 82 -49 134 -51 229 -7 106
50 669 223 723 223 23 0 60 -112 80 -241 l4 -27 -131 -16 c-72 -10 -176 -23
-231 -31 -55 -8 -170 -24 -255 -35 -85 -12 -220 -32 -300 -45 -180 -29 -295
-43 -430 -51 -114 -7 -150 -20 -150 -57 0 -27 32 -59 119 -117 97 -65 170
-100 207 -100 19 0 76 16 127 36 176 69 467 131 888 188 180 25 165 31 172
-72 10 -140 -5 -506 -24 -577 -24 -90 -54 -98 -244 -65 -60 10 -113 16 -117
14 -22 -14 2 -47 110 -153 64 -64 137 -145 162 -180 98 -139 104 -146 138
-149 55 -6 127 72 196 211 67 137 69 148 73 602 3 226 7 412 10 415 7 8 406 6
633 -3 113 -4 218 -4 235 1 41 11 61 53 45 92 -19 47 -96 109 -184 151 -142
66 -148 67 -347 31 -96 -17 -196 -33 -224 -37 -27 -3 -67 -8 -87 -11 l-38 -6
6 45 c4 25 4 56 1 69 -9 36 -73 95 -152 141 l-70 41 125 33 c69 18 130 33 135
32 6 0 35 -31 67 -68 110 -132 205 -166 273 -98 41 41 53 105 36 180 -24 103
-87 149 -296 212 -125 38 -204 45 -225 20 -10 -12 -9 -19 2 -37 8 -13 22 -35
32 -49 l17 -27 -58 -10 c-235 -44 -339 -62 -355 -62 -17 0 -18 9 -16 123 l3
122 165 22 c91 12 194 22 230 22 62 1 66 -1 82 -28 24 -43 62 -64 100 -57 43
8 93 39 113 70 10 14 77 187 150 385 73 197 138 368 144 379 6 11 31 44 56 73
59 69 59 94 2 146 -55 51 -105 79 -242 139 -152 65 -181 64 -460 -26 -138 -45
-302 -90 -327 -90 -16 0 -18 12 -18 115 l0 114 33 5 c17 3 151 21 297 41 406
56 708 119 768 160 55 40 10 103 -108 152 -118 49 -145 50 -300 10 -244 -63
-661 -140 -676 -124 -4 4 -1 33 6 64 7 32 15 81 17 109 4 44 1 55 -22 83 -35
41 -102 75 -201 101 -107 28 -185 27 -218 -2z m1010 -909 c13 -15 19 -38 20
-77 2 -57 -13 -202 -21 -210 -2 -3 -28 5 -57 16 -65 25 -184 52 -233 52 -36 0
-47 -2 -207 -40 -47 -11 -92 -20 -98 -20 -7 0 -10 34 -8 107 l3 108 125 23
c365 67 446 74 476 41z m-914 -230 c2 -56 1 -105 -2 -109 -5 -8 -248 -50 -366
-64 l-51 -6 -12 82 c-22 155 -22 147 2 152 12 3 72 8 132 11 61 4 144 12 185
20 41 7 83 13 92 14 14 1 17 -13 20 -100z m863 -288 c-31 -122 -63 -211 -76
-211 -5 0 -31 10 -57 23 -57 29 -126 28 -296 -2 -63 -12 -118 -21 -121 -21 -3
0 -5 52 -5 115 0 84 3 117 13 120 22 8 240 44 365 60 67 9 139 21 160 28 27 9
38 9 40 1 2 -6 -9 -57 -23 -113z m-1090 -46 c50 0 124 4 166 9 l75 8 3 -120 2
-120 -33 -6 c-58 -10 -281 -36 -314 -36 l-31 0 -12 103 c-7 56 -15 119 -18
139 l-5 37 38 -7 c22 -4 80 -7 129 -7z"/>
<path d="M42061 1931 c-39 -10 -49 -35 -27 -73 95 -165 218 -328 267 -353 65
-34 168 17 189 93 24 86 7 175 -42 219 -56 53 -323 131 -387 114z"/>
<path d="M6807 5382 c-12 -13 -22 -47 -28 -94 -12 -100 -47 -199 -128 -363
-83 -170 -183 -343 -308 -533 -52 -78 -91 -147 -88 -152 11 -18 47 -10 104 22
165 93 295 202 606 509 132 130 264 251 293 269 29 17 57 40 62 49 35 67 -97
192 -283 266 -116 47 -203 57 -230 27z"/>
<path d="M38076 5334 c-18 -17 -18 -20 -41 -146 -43 -242 -145 -500 -311 -784
-74 -126 -132 -202 -219 -287 -82 -81 -86 -93 -60 -168 24 -67 101 -184 130
-197 39 -18 62 -15 133 19 36 16 121 46 191 65 69 20 148 42 176 49 27 8 51
13 52 11 2 -1 -68 -97 -154 -211 -87 -115 -180 -238 -207 -274 -79 -107 -161
-194 -206 -221 -85 -51 -100 -68 -100 -114 0 -74 101 -209 185 -247 54 -25 62
-24 125 14 30 18 100 53 155 76 105 45 561 201 588 201 9 0 29 -19 45 -42 48
-70 106 -137 142 -163 26 -19 46 -25 84 -25 119 0 170 92 146 263 -13 89 -50
167 -98 207 -79 65 -295 159 -419 182 -56 10 -65 10 -83 -7 -11 -10 -20 -25
-20 -34 0 -9 29 -65 64 -126 41 -71 59 -112 52 -116 -20 -12 -483 -72 -500
-66 -24 9 -20 20 26 79 85 108 579 687 696 816 131 145 144 170 122 239 -29
88 -143 232 -207 259 -37 16 -76 6 -91 -23 -5 -10 -21 -60 -36 -112 -35 -123
-75 -217 -133 -313 l-47 -78 -70 -1 c-39 -1 -123 -3 -186 -5 -63 -3 -125 -2
-137 1 -31 7 -37 38 -15 87 24 54 265 443 427 688 67 102 126 196 130 210 29
93 -48 202 -196 278 -68 35 -109 40 -133 16z"/>
<path d="M31015 5225 c-240 -79 -269 -85 -750 -165 -269 -45 -623 -105 -785
-135 -490 -89 -477 -88 -584 -45 -97 39 -207 64 -249 56 -57 -11 -80 -37 -84
-97 -4 -49 0 -64 46 -157 51 -102 73 -173 86 -267 3 -27 8 -61 10 -75 33 -241
63 -1318 42 -1505 -4 -38 -17 -153 -28 -255 -11 -102 -22 -203 -24 -225 -3
-22 -21 -186 -40 -365 -50 -469 -53 -489 -79 -592 -34 -136 -81 -222 -175
-321 -100 -106 -105 -116 -96 -186 12 -99 107 -303 167 -357 38 -35 104 -64
146 -64 48 0 97 32 304 199 160 130 581 448 973 735 337 247 332 244 371 282
28 28 35 42 32 67 -3 30 -5 32 -44 31 -43 -1 -92 -22 -619 -279 -574 -280
-580 -282 -615 -240 -11 13 -15 304 -6 365 3 14 7 102 10 195 6 161 10 236 21
435 2 47 7 141 11 210 4 69 7 126 9 127 1 2 28 -2 61 -8 96 -18 248 -4 599 56
618 105 807 136 810 133 2 -2 21 -46 44 -99 146 -346 345 -727 489 -939 386
-568 770 -970 1197 -1253 256 -170 492 -257 700 -260 177 -2 205 55 135 279
-44 144 -79 491 -95 959 -10 280 -37 346 -80 195 -42 -147 -221 -672 -246
-721 -30 -61 -79 -109 -111 -109 -28 0 -142 47 -220 91 -246 138 -836 724
-1048 1039 -153 229 -312 542 -404 797 l-25 73 22 4 c19 5 166 24 427 56 41 5
104 12 140 15 36 3 81 8 100 10 19 2 98 9 175 16 185 15 225 31 225 92 0 36
-44 81 -122 125 -65 37 -265 102 -333 109 -48 5 -200 -26 -604 -121 -58 -14
-108 -23 -112 -21 -18 12 -69 352 -69 465 -1 86 -23 133 -94 197 l-57 51 103
11 c162 18 192 20 368 27 114 4 172 10 186 19 54 35 32 114 -48 173 -26 20
-48 39 -48 43 0 6 95 161 213 348 43 67 153 184 252 267 53 45 59 54 58 87 -2
85 -144 215 -378 347 -129 74 -144 80 -195 79 -30 0 -59 -2 -65 -4z m-203
-356 c21 -5 50 -21 65 -34 35 -30 35 -69 -2 -221 -22 -92 -122 -434 -129 -441
-1 -2 -69 -14 -152 -28 -82 -14 -216 -41 -299 -60 -350 -78 -743 -142 -1103
-178 l-43 -4 6 96 c3 53 8 119 10 146 2 28 7 129 11 225 4 96 10 183 14 194 3
10 24 25 46 33 86 33 348 107 491 139 165 37 559 105 713 123 52 6 109 13 125
15 69 8 213 5 247 -5z m-614 -1241 c68 -138 146 -327 210 -510 l31 -86 -72
-16 c-337 -77 -944 -189 -1251 -231 l-48 -7 6 39 c3 21 8 79 11 128 3 50 8
106 10 125 2 19 7 89 10 155 4 66 9 127 10 135 2 9 6 76 10 150 4 74 8 136 9
136 0 1 39 5 86 8 106 8 149 13 275 31 118 17 209 29 445 60 96 12 178 23 181
24 3 0 38 -63 77 -141z"/>
<path d="M4284 5173 c-20 -15 -34 -51 -34 -90 -1 -67 -27 -186 -59 -270 -33
-85 -101 -199 -210 -353 l-64 -90 -81 78 c-114 109 -143 130 -506 373 -140 93
-215 111 -234 56 -15 -43 12 -82 127 -183 156 -137 372 -349 454 -447 l74 -89
-63 -71 c-215 -248 -654 -639 -904 -805 -68 -45 -79 -68 -39 -78 92 -23 579
224 864 438 78 59 172 137 278 231 l23 20 23 -54 c43 -97 79 -212 102 -324 19
-95 20 -113 8 -131 -7 -12 -23 -54 -34 -94 -32 -116 -77 -203 -211 -406 -342
-520 -521 -719 -1023 -1137 -99 -82 -190 -158 -203 -169 -30 -24 -25 -52 10
-56 34 -4 270 84 414 154 390 190 690 474 1037 984 l79 115 -5 -395 c-3 -217
-8 -411 -10 -430 -3 -19 -8 -77 -12 -128 -4 -52 -8 -103 -10 -115 -2 -12 -6
-53 -10 -92 -17 -185 -65 -431 -104 -536 -69 -183 -160 -225 -397 -184 -107
19 -196 45 -294 85 -40 16 -76 27 -81 24 -21 -12 -6 -43 47 -94 116 -114 351
-379 513 -580 58 -73 109 -74 217 -5 221 141 362 398 423 767 48 293 63 529
65 1018 2 561 -22 895 -90 1269 -49 273 -99 431 -195 622 -50 101 -50 101 -31
123 108 121 210 242 339 403 85 106 170 205 190 220 64 49 83 71 83 98 0 108
-256 318 -404 331 -28 3 -56 1 -62 -3z"/>
<path d="M11961 5163 c-23 -15 -24 -19 -17 -102 4 -47 12 -120 17 -161 5 -41
12 -411 15 -821 l6 -746 -148 -80 c-309 -166 -385 -205 -392 -199 -8 9 17 255
34 336 8 36 17 97 20 137 6 65 5 75 -19 116 -29 48 -52 68 -175 145 -79 50
-86 52 -152 52 -109 0 -127 -33 -86 -163 49 -155 56 -217 56 -516 l0 -278
-162 -78 c-90 -43 -253 -118 -363 -167 -110 -50 -208 -97 -218 -106 -27 -24
-17 -54 28 -79 72 -40 202 -82 277 -89 90 -7 124 4 302 105 70 40 130 71 132
69 2 -2 6 -177 9 -389 8 -517 19 -607 91 -751 103 -205 250 -340 519 -476 299
-151 640 -213 1140 -207 337 5 566 32 834 101 314 80 618 241 738 389 98 120
107 204 34 320 -63 100 -139 259 -166 350 -13 44 -44 165 -69 269 -46 188 -62
226 -97 226 -34 0 -44 -37 -109 -420 -31 -180 -56 -273 -92 -344 -112 -224
-391 -358 -873 -422 -148 -19 -587 -28 -745 -14 -386 33 -599 98 -736 222 -99
91 -152 210 -175 392 -17 142 -7 917 12 929 56 33 541 288 543 286 2 -2 6
-193 9 -424 6 -419 8 -457 28 -570 16 -86 33 -115 68 -115 23 0 34 8 50 34 58
94 147 461 166 686 4 41 8 81 10 88 3 6 7 96 11 200 6 168 9 243 13 279 0 6
65 45 144 86 78 41 243 127 365 191 123 64 235 116 248 116 49 0 51 -75 8
-313 -48 -267 -151 -579 -328 -989 -9 -21 -12 -38 -7 -38 5 0 43 22 83 50 82
54 187 154 254 241 160 209 348 553 441 809 47 130 97 228 152 295 96 119 108
154 67 203 -89 105 -546 224 -652 169 -16 -8 -47 -29 -69 -47 -52 -41 -336
-218 -490 -305 -66 -37 -140 -78 -164 -92 l-43 -25 7 268 c4 148 9 292 10 319
1 28 3 124 5 215 5 282 21 398 72 505 61 129 24 188 -179 286 -115 55 -127 59
-196 59 -51 0 -79 -5 -96 -17z"/>
<path d="M35227 5112 c-9 -10 -26 -65 -37 -122 -86 -425 -361 -914 -647 -1151
-18 -14 -35 -39 -39 -54 -9 -38 16 -111 68 -195 87 -139 104 -144 260 -67 67
33 176 74 268 102 214 64 197 60 184 44 -6 -8 -67 -90 -134 -184 -335 -461
-388 -527 -487 -591 -60 -38 -72 -66 -54 -125 16 -52 96 -157 146 -190 59 -40
96 -43 137 -14 61 44 161 99 268 146 97 43 419 169 465 182 16 4 29 -7 64 -55
50 -68 92 -98 138 -98 76 0 113 42 120 134 7 80 -10 168 -44 235 -23 44 -42
64 -98 102 -89 60 -252 129 -321 136 -45 5 -53 3 -63 -15 -11 -22 5 -59 106
-239 l34 -62 -38 -10 c-109 -29 -423 -101 -441 -101 -56 0 -45 16 227 350 258
317 356 435 446 535 45 50 89 102 99 117 39 59 15 141 -79 266 -56 74 -107
112 -152 112 -40 0 -56 -22 -78 -108 -26 -102 -96 -282 -120 -310 -1 -1 -27
-7 -56 -12 -30 -5 -92 -16 -139 -25 -282 -51 -324 -40 -269 67 25 50 377 543
491 688 103 131 148 206 148 242 0 60 -65 150 -149 207 -120 81 -190 101 -224
63z"/>
<path d="M5227 5075 c-38 -19 -27 -73 42 -211 137 -271 299 -491 376 -510 36
-9 124 9 159 31 14 9 37 41 52 71 24 50 26 62 22 152 -7 181 -70 265 -278 371
-161 82 -320 123 -373 96z"/>
<path d="M23876 5039 c-32 -25 -56 -69 -56 -102 0 -13 9 -57 19 -97 24 -91 26
-314 4 -460 -62 -420 -290 -1125 -507 -1575 -330 -683 -763 -1209 -1495 -1815
-94 -78 -171 -146 -171 -151 0 -4 10 -13 22 -20 53 -28 219 21 443 131 284
139 533 327 840 635 257 256 400 441 568 731 142 247 264 493 398 802 31 73
59 136 62 138 5 6 54 -80 206 -358 248 -455 429 -738 776 -1208 276 -375 514
-657 602 -716 29 -19 81 -45 115 -58 121 -45 183 -51 508 -50 382 1 517 12
865 70 69 11 105 33 105 64 0 41 -11 46 -550 290 -481 218 -644 309 -961 536
-228 164 -386 300 -630 543 -294 295 -506 543 -812 949 l-130 174 21 56 c144
389 185 506 207 589 46 168 86 284 136 395 26 59 51 123 55 143 16 85 -91 182
-335 304 -159 81 -255 99 -305 60z"/>
<path d="M10287 4998 c-25 -19 -37 -63 -37 -131 0 -165 -58 -382 -171 -634
-216 -487 -497 -941 -847 -1373 -111 -136 -302 -350 -313 -350 -5 0 -18 -14
-29 -32 -14 -24 -16 -35 -8 -45 26 -31 97 -4 243 93 286 189 549 442 778 747
74 99 66 103 89 -33 17 -98 16 -989 -1 -1250 -26 -395 -44 -522 -118 -818
l-56 -223 21 -85 c25 -102 104 -301 144 -366 68 -108 136 -104 186 12 25 59
67 199 81 270 16 81 23 335 36 1335 5 363 8 454 21 680 5 99 8 122 39 300 8
50 12 104 9 120 -12 58 -114 212 -201 306 l-42 45 79 127 c105 167 177 294
290 507 123 231 180 326 229 377 54 59 59 90 26 158 -71 145 -371 321 -448
263z"/>
<path d="M7430 4290 c-104 -26 -1423 -242 -1635 -269 -49 -7 -119 -16 -155
-21 -109 -16 -125 -18 -450 -59 -173 -22 -393 -50 -487 -61 -210 -25 -245 -38
-226 -85 12 -34 180 -124 297 -161 50 -16 64 -16 114 -5 172 38 304 63 452 86
91 14 177 28 191 31 24 4 29 0 53 -51 23 -49 28 -77 36 -203 12 -191 13 -369
0 -377 -5 -3 -100 -15 -210 -27 l-201 -22 -72 36 c-40 20 -85 38 -102 42 -110
21 -137 15 -154 -37 -12 -36 -10 -46 30 -134 12 -26 31 -90 43 -143 20 -91 21
-120 20 -630 -1 -663 -15 -832 -100 -1180 -28 -114 -34 -156 -29 -196 18 -144
120 -368 180 -396 43 -19 69 2 114 93 23 45 44 98 47 118 l6 36 106 0 c103 1
296 12 337 20 11 2 58 7 105 10 47 3 130 10 185 15 55 5 136 11 180 15 44 3
96 7 115 10 19 2 76 7 125 10 90 6 169 13 235 20 19 2 76 7 125 10 50 3 122 8
161 11 l72 5 23 -37 c12 -20 59 -109 105 -197 45 -88 94 -173 109 -188 51 -55
125 -30 219 71 104 113 175 298 178 465 1 49 -10 205 -25 345 -15 140 -29 275
-32 300 -22 223 -27 387 -21 740 9 529 14 589 60 695 30 69 32 95 11 134 -24
48 -89 95 -239 175 -119 63 -151 76 -190 76 -51 0 -197 -30 -412 -84 -77 -20
-149 -36 -159 -36 -17 0 -17 7 -11 94 11 157 26 256 52 338 9 27 13 61 9 77
-6 28 -42 68 -80 89 -14 8 -16 12 -5 12 8 1 24 3 35 5 25 5 433 33 575 39 58
3 204 6 325 7 310 2 441 23 497 80 61 60 22 112 -147 195 -193 94 -287 117
-385 94z m-1180 -562 c6 -64 10 -203 8 -318 l-3 -205 -130 -21 c-71 -12 -150
-24 -173 -28 l-44 -6 7 173 c3 94 13 209 21 254 17 98 8 132 -50 180 l-37 30
78 12 c140 21 268 39 289 40 20 1 22 -7 34 -111z m839 -672 c49 -23 61 -53 66
-171 10 -232 13 -525 6 -529 -4 -3 -30 2 -58 11 -48 15 -59 15 -195 -5 -180
-27 -243 -28 -284 -3 -73 44 -107 151 -108 336 -1 138 11 355 20 364 19 19
512 17 553 -3z m-833 -263 c-7 -261 -1 -329 40 -434 55 -141 177 -239 354
-284 123 -32 345 -19 465 26 27 10 52 19 54 19 5 0 -8 -797 -14 -860 -2 -25
-7 -76 -10 -115 -8 -81 -24 -165 -33 -165 -3 0 -51 23 -106 51 l-100 52 -115
-6 c-134 -8 -308 -27 -541 -62 -345 -50 -1005 -111 -1032 -94 -6 4 -8 24 -5
50 4 24 9 89 12 144 4 55 8 120 10 144 2 24 7 143 11 265 4 121 8 228 10 236
1 8 3 57 3 108 l1 92 30 0 c61 0 241 111 325 201 167 178 250 400 280 751 l7
76 66 11 c37 6 114 17 172 25 58 7 109 14 114 15 5 0 6 -101 2 -246z m-640
130 c-3 -16 -8 -59 -11 -98 -16 -172 -71 -374 -146 -534 -43 -93 -133 -233
-173 -271 l-27 -24 2 254 c2 257 13 545 24 610 l6 35 152 26 c84 14 158 27
165 27 10 2 12 -6 8 -25z"/>
<path d="M6265 1739 c-193 -50 -462 -106 -545 -114 -121 -12 -170 -37 -170
-86 0 -68 166 -122 350 -114 52 2 163 15 245 29 83 14 211 34 285 46 74 11
165 25 201 31 132 21 216 82 175 128 -38 42 -188 90 -356 114 -22 3 -89 -9
-185 -34z"/>
<path d="M18912 4184 c-261 -52 -839 -134 -1297 -184 -55 -6 -118 -12 -140
-15 -22 -2 -92 -9 -155 -15 -63 -6 -160 -15 -215 -20 -113 -11 -197 -17 -335
-25 -242 -14 -280 -23 -280 -61 0 -34 61 -98 118 -122 85 -36 195 -46 457 -38
132 4 260 9 285 11 121 12 293 25 328 25 36 0 40 -2 50 -37 41 -139 44 -190
49 -835 4 -518 2 -629 -9 -632 -7 -2 -107 -11 -223 -21 -115 -9 -223 -18 -240
-20 -16 -2 -57 -7 -90 -10 -88 -9 -268 -31 -445 -54 -85 -11 -211 -23 -280
-26 -69 -4 -132 -8 -140 -10 -8 -2 -139 -7 -290 -10 -151 -3 -295 -8 -320 -11
-76 -10 -110 -35 -110 -84 0 -29 68 -80 176 -132 223 -107 329 -125 499 -88
422 91 619 126 927 164 246 30 510 51 531 43 14 -5 16 -39 17 -271 0 -175 -3
-267 -10 -271 -6 -4 -171 -24 -368 -46 -443 -48 -416 -45 -602 -64 -176 -17
-200 -22 -252 -42 -75 -30 -39 -81 105 -147 183 -85 234 -93 440 -66 330 43
672 79 678 72 4 -4 9 -212 12 -462 4 -420 6 -460 25 -524 24 -83 50 -121 83
-121 74 0 169 380 198 800 16 217 20 287 21 317 0 26 1 26 88 33 48 3 107 8
132 10 111 11 595 35 790 40 335 9 381 14 422 52 30 27 21 60 -28 113 -70 75
-166 135 -274 171 -110 36 -137 36 -408 -6 -87 -13 -251 -35 -367 -50 -243
-30 -266 -34 -319 -41 l-39 -6 7 268 c4 148 8 270 9 271 1 1 72 4 157 8 85 4
166 8 179 10 101 16 767 24 1496 17 444 -4 504 7 505 93 0 43 -31 87 -97 139
-74 58 -148 94 -303 146 -143 48 -147 48 -395 5 -252 -44 -681 -99 -935 -120
-41 -4 -86 -9 -100 -11 -14 -2 -101 -8 -195 -14 -93 -5 -202 -13 -242 -16
l-72 -6 4 348 c3 192 7 415 10 496 6 158 35 354 66 445 10 31 19 74 19 95 0
33 -7 46 -49 88 l-49 48 47 6 c25 3 71 8 101 11 293 28 754 87 950 120 168 29
248 50 273 72 24 22 21 65 -7 96 -27 29 -123 80 -206 109 -109 39 -139 38
-368 -8z"/>
<path d="M18928 3760 c-29 -29 -30 -34 -24 -88 16 -148 18 -225 6 -349 -7 -73
-16 -136 -20 -138 -5 -3 -133 -25 -286 -50 -316 -52 -353 -60 -361 -81 -13
-34 102 -109 235 -153 l63 -22 112 25 c136 31 197 41 197 32 0 -11 -79 -380
-99 -464 -22 -93 -20 -109 16 -118 30 -8 48 7 124 108 70 91 151 235 233 409
l58 126 122 13 c66 6 229 16 361 20 300 11 382 30 404 92 9 25 6 33 -19 61
-44 51 -297 167 -362 167 -12 0 -104 -19 -205 -41 -101 -23 -186 -39 -190 -36
-7 8 10 52 58 149 43 85 46 105 24 147 -44 86 -271 220 -373 221 -35 0 -49 -6
-74 -30z"/>
<path d="M16543 3536 c-63 -29 -60 -86 12 -221 59 -110 138 -306 127 -316 -9
-9 -441 -68 -647 -89 -122 -13 -135 -16 -135 -40 0 -51 96 -119 233 -165 100
-33 146 -33 282 -1 215 51 346 74 351 62 2 -6 29 -96 60 -201 31 -104 68 -212
82 -238 25 -46 63 -77 95 -77 25 0 61 47 78 100 14 47 14 64 -2 198 -10 81
-22 176 -28 211 -6 36 -9 66 -8 67 4 4 293 43 362 49 188 16 197 21 170 78
-22 47 -68 81 -143 106 -76 26 -142 26 -297 2 -66 -10 -121 -18 -122 -17 -9 8
-23 151 -23 234 0 122 -11 150 -73 186 -98 58 -313 99 -374 72z"/>
<path d="M36370 2820 c-27 -27 -25 -43 11 -128 33 -79 53 -172 64 -293 8 -90
17 -84 -125 -94 -111 -7 -117 -7 -445 -40 -137 -14 -290 -32 -340 -40 -79 -12
-167 -22 -350 -40 -101 -10 -417 -24 -659 -30 -137 -4 -261 -11 -275 -17 -72
-27 -81 -78 -24 -129 44 -38 205 -117 316 -154 134 -45 171 -44 432 13 292 64
667 129 895 156 25 3 86 10 136 16 163 20 445 36 451 27 6 -9 -5 -772 -12
-869 -2 -29 -7 -104 -10 -167 -3 -63 -8 -118 -10 -121 -11 -18 -36 -288 -37
-395 -1 -107 2 -129 28 -204 30 -91 73 -163 116 -194 24 -18 32 -19 66 -9 48
15 83 51 121 129 57 115 59 139 60 1037 1 451 2 821 4 822 2 2 133 11 292 20
61 3 135 8 165 11 30 4 468 7 972 9 505 1 939 5 965 9 56 8 114 31 125 48 4 7
8 28 8 47 0 29 -10 44 -67 100 -81 78 -145 113 -313 171 -156 54 -177 54 -495
0 -410 -70 -1007 -135 -1445 -157 -74 -4 -141 -7 -150 -8 -19 -1 -18 20 4 152
10 56 15 117 12 135 -12 65 -91 124 -234 176 -105 39 -219 44 -252 11z"/>
<path d="M37437 1753 c-27 -26 10 -75 143 -189 114 -98 308 -306 482 -516 235
-284 363 -404 505 -475 85 -42 127 -40 167 7 39 47 51 96 50 200 -3 185 -52
302 -183 430 -164 162 -438 321 -796 464 -176 70 -342 106 -368 79z"/>
<path d="M35369 1731 c-10 -6 -20 -31 -24 -58 -17 -113 -182 -355 -390 -572
-141 -147 -394 -381 -494 -457 -50 -38 -91 -75 -91 -81 0 -56 275 19 525 144
253 127 488 317 697 563 34 41 89 100 120 131 55 54 56 57 48 93 -25 113 -182
232 -319 242 -31 3 -63 0 -72 -5z"/>
</g>
</svg>
